<svg id="svg" version="1.1" xmlns="http://www.w3.org/2000/svg" xmlns:xlink="http://www.w3.org/1999/xlink" width="400" height="400" viewBox="0, 0, 400,400"><g id="svgg"><path id="path0" d="M148.621 98.260 C 147.872 98.688,147.004 99.127,146.694 99.234 C 146.383 99.342,146.129 99.558,146.129 99.715 C 146.129 99.872,145.981 100.000,145.800 100.000 C 145.217 100.000,138.653 106.744,138.879 107.110 C 139.027 107.349,139.275 107.299,139.655 106.956 C 139.962 106.678,140.311 106.547,140.429 106.666 C 140.548 106.785,140.645 106.559,140.645 106.164 C 140.645 105.769,140.775 105.526,140.934 105.624 C 141.093 105.722,141.309 105.577,141.416 105.300 C 141.522 105.024,141.755 104.888,141.933 104.999 C 142.112 105.109,142.258 104.973,142.258 104.696 C 142.258 104.420,142.476 104.194,142.742 104.194 C 143.008 104.194,143.190 104.012,143.145 103.790 C 143.101 103.569,143.246 103.423,143.468 103.468 C 143.690 103.512,143.871 103.331,143.871 103.065 C 143.871 102.798,144.026 102.581,144.217 102.581 C 144.629 102.581,145.484 101.773,145.484 101.384 C 145.484 101.232,145.847 101.078,146.290 101.042 C 146.734 101.005,147.097 101.119,147.097 101.294 C 147.097 101.469,146.954 101.613,146.780 101.613 C 146.606 101.613,145.699 102.421,144.764 103.409 C 143.829 104.397,142.230 106.081,141.210 107.152 L 139.355 109.098 139.355 128.879 L 139.355 148.660 140.246 147.798 C 140.737 147.324,141.769 146.427,142.540 145.806 C 143.312 145.185,144.367 144.278,144.886 143.790 C 145.404 143.302,145.903 142.903,145.993 142.903 C 146.083 142.903,146.549 142.540,147.027 142.097 C 148.654 140.588,148.464 141.283,146.796 142.943 C 145.882 143.852,145.189 144.759,145.255 144.959 C 145.426 145.473,146.309 145.413,146.202 144.895 C 146.153 144.660,146.244 144.549,146.403 144.647 C 146.563 144.746,147.048 144.503,147.482 144.107 C 147.916 143.711,148.755 143.024,149.347 142.581 C 149.938 142.137,150.931 141.373,151.552 140.882 C 152.173 140.391,153.203 139.673,153.841 139.286 C 154.478 138.899,155.073 138.501,155.161 138.401 C 155.689 137.808,158.299 136.327,158.677 136.407 C 160.054 136.697,160.275 140.048,160.285 160.857 C 160.287 164.148,160.413 166.147,160.627 166.279 C 160.853 166.419,160.797 166.814,160.459 167.467 C 160.080 168.201,159.991 169.065,160.106 170.917 C 160.366 175.108,160.703 177.877,161.027 178.491 C 161.198 178.814,161.551 179.898,161.812 180.901 C 162.073 181.903,162.474 182.945,162.703 183.216 C 162.932 183.488,163.305 184.177,163.531 184.749 C 163.757 185.321,164.253 186.139,164.632 186.568 C 167.527 189.834,168.262 190.549,168.595 190.421 C 168.803 190.341,169.065 190.563,169.177 190.915 C 169.288 191.266,170.063 191.875,170.899 192.268 C 171.734 192.660,172.745 193.335,173.145 193.766 C 173.544 194.197,173.871 194.397,173.871 194.210 C 173.871 193.669,174.654 193.974,174.917 194.617 C 175.048 194.939,175.296 195.116,175.468 195.010 C 175.911 194.736,177.096 195.545,177.102 196.126 C 177.106 196.558,177.142 196.558,177.419 196.129 C 177.665 195.749,177.733 195.740,177.737 196.088 C 177.741 196.413,177.853 196.439,178.158 196.186 C 178.457 195.937,178.795 195.967,179.367 196.295 C 180.766 197.095,180.992 197.180,181.189 196.983 C 181.442 196.730,179.967 195.508,179.390 195.495 C 178.067 195.463,178.085 195.988,178.075 158.145 C 178.068 134.581,178.175 121.935,178.382 121.935 C 178.557 121.935,179.462 122.651,180.394 123.526 C 181.326 124.401,182.162 125.034,182.254 124.933 C 182.345 124.833,182.238 124.686,182.016 124.606 C 181.794 124.527,181.613 124.343,181.613 124.196 C 181.613 124.050,180.742 123.067,179.677 122.013 C 178.613 120.958,177.742 119.928,177.742 119.725 C 177.742 119.521,177.516 119.355,177.239 119.355 C 176.962 119.355,176.816 119.225,176.915 119.066 C 177.013 118.907,176.876 118.694,176.611 118.592 C 176.346 118.491,176.129 118.242,176.129 118.040 C 176.129 117.838,176.347 117.756,176.613 117.859 C 176.879 117.961,177.097 117.904,177.097 117.732 C 177.097 117.560,176.879 117.419,176.613 117.419 C 176.347 117.419,176.129 117.297,176.129 117.147 C 176.129 116.741,174.705 115.161,174.345 115.166 C 174.173 115.169,174.250 115.325,174.516 115.513 C 174.946 115.818,174.946 115.841,174.516 115.723 C 174.250 115.651,174.014 115.422,173.992 115.215 C 173.970 115.008,173.933 114.694,173.911 114.516 C 173.889 114.339,173.762 114.217,173.629 114.245 C 173.125 114.351,172.258 113.784,172.258 113.347 C 172.258 113.097,171.714 112.392,171.048 111.782 C 170.383 111.172,169.621 110.472,169.355 110.227 C 169.089 109.982,168.196 109.033,167.370 108.117 C 166.545 107.201,165.727 106.452,165.553 106.452 C 165.379 106.452,165.158 106.151,165.062 105.783 C 164.965 105.415,164.585 105.035,164.217 104.938 C 163.849 104.842,163.548 104.628,163.548 104.462 C 163.548 104.157,159.483 100.000,159.184 100.000 C 159.095 100.000,158.227 99.472,157.254 98.826 C 154.869 97.242,150.863 96.980,148.621 98.260 M148.526 100.286 C 148.623 100.443,148.414 100.647,148.061 100.740 C 147.430 100.905,147.212 100.637,147.634 100.215 C 147.933 99.916,148.316 99.947,148.526 100.286 M136.780 108.633 C 135.985 109.474,135.368 110.270,135.409 110.403 C 135.450 110.536,135.282 110.645,135.035 110.645 C 134.787 110.645,134.499 110.870,134.393 111.146 C 134.264 111.483,134.331 111.571,134.600 111.415 C 135.251 111.039,138.710 107.612,138.710 107.344 C 138.710 106.806,138.163 107.172,136.780 108.633 M131.452 113.882 C 130.565 114.760,130.020 115.480,130.242 115.481 C 130.464 115.483,130.645 115.339,130.645 115.161 C 130.645 114.984,130.858 114.839,131.118 114.839 C 131.378 114.839,131.762 114.518,131.971 114.126 C 132.181 113.734,132.658 113.159,133.031 112.847 C 133.404 112.535,133.565 112.281,133.387 112.282 C 133.210 112.284,132.339 113.004,131.452 113.882 M127.742 117.581 C 127.140 118.202,126.738 118.710,126.847 118.710 C 127.069 118.710,129.032 116.804,129.032 116.588 C 129.032 116.308,128.809 116.480,127.742 117.581 M125.645 119.677 C 125.324 120.032,125.224 120.323,125.423 120.323 C 125.621 120.323,125.939 120.032,126.129 119.677 C 126.319 119.323,126.419 119.032,126.352 119.032 C 126.284 119.032,125.966 119.323,125.645 119.677 M287.971 133.871 C 287.878 134.226,287.929 134.438,288.085 134.342 C 288.241 134.246,288.461 134.536,288.574 134.987 C 288.757 135.717,289.056 135.943,289.726 135.855 C 289.841 135.840,290.025 136.186,290.135 136.624 C 290.245 137.061,290.477 137.419,290.651 137.419 C 290.825 137.419,290.968 137.565,290.968 137.742 C 290.968 138.350,290.375 138.064,289.325 136.951 C 288.747 136.339,288.167 135.904,288.036 135.985 C 287.905 136.067,287.724 135.951,287.634 135.728 C 287.544 135.505,287.470 164.718,287.470 200.645 C 287.470 236.573,287.544 265.786,287.633 265.565 C 287.722 265.343,287.911 265.161,288.053 265.161 C 288.296 265.161,289.119 264.425,292.661 261.041 C 294.691 259.102,294.633 259.712,292.591 261.774 C 291.713 262.661,290.989 263.577,290.981 263.809 C 290.974 264.042,290.813 264.136,290.623 264.019 C 290.434 263.902,290.200 264.109,290.103 264.480 C 290.006 264.851,289.798 265.075,289.641 264.977 C 289.483 264.880,289.355 265.027,289.355 265.304 C 289.355 265.580,289.137 265.806,288.871 265.806 C 288.605 265.806,288.387 266.024,288.387 266.290 C 288.387 266.556,288.242 266.774,288.065 266.774 C 287.887 266.774,287.742 266.992,287.742 267.258 C 287.742 267.524,287.601 267.742,287.429 267.742 C 287.258 267.742,287.205 267.972,287.314 268.254 C 287.508 268.762,289.194 267.370,289.194 266.701 C 289.194 266.564,289.314 266.464,289.462 266.478 C 289.610 266.493,291.497 264.721,293.656 262.540 C 295.814 260.360,297.653 258.574,297.742 258.572 C 297.934 258.568,303.811 252.581,303.624 252.581 C 303.552 252.581,304.958 251.127,306.747 249.350 C 308.536 247.574,310.000 245.982,310.000 245.812 C 310.000 245.643,310.218 245.588,310.484 245.690 C 310.790 245.807,310.968 245.685,310.968 245.357 C 310.968 245.072,311.113 244.839,311.290 244.839 C 311.468 244.839,311.613 244.626,311.613 244.365 C 311.613 244.097,311.804 243.965,312.054 244.061 C 312.369 244.181,312.470 243.993,312.405 243.404 C 312.355 242.949,312.430 242.649,312.571 242.736 C 312.713 242.824,313.008 242.461,313.228 241.931 C 313.447 241.401,313.827 240.968,314.071 240.968 C 314.316 240.968,314.516 240.750,314.516 240.484 C 314.516 239.907,315.053 239.835,315.237 240.387 C 315.337 240.689,315.419 240.689,315.605 240.387 C 315.737 240.174,315.691 240.000,315.503 240.000 C 315.315 240.000,315.161 239.774,315.161 239.497 C 315.161 239.220,315.307 239.085,315.486 239.195 C 315.665 239.305,315.909 239.132,316.028 238.811 C 316.148 238.489,317.518 236.923,319.073 235.332 C 321.725 232.617,322.840 231.120,320.716 233.124 C 320.187 233.624,318.830 234.889,317.700 235.935 L 315.645 237.839 315.563 200.802 C 315.489 167.384,315.553 162.430,316.039 163.790 C 316.118 164.012,316.376 164.194,316.613 164.194 C 316.849 164.194,317.108 164.375,317.187 164.597 C 317.266 164.819,317.438 164.901,317.569 164.779 C 317.799 164.566,317.567 164.198,316.371 162.880 C 316.060 162.538,315.804 161.859,315.802 161.371 C 315.798 160.680,315.728 160.591,315.484 160.968 C 315.275 161.290,315.170 161.317,315.166 161.048 C 315.164 160.827,314.935 160.645,314.658 160.645 C 314.382 160.645,314.247 160.498,314.358 160.317 C 314.470 160.137,314.696 160.073,314.861 160.175 C 315.026 160.277,315.161 160.215,315.161 160.038 C 315.161 159.861,315.016 159.626,314.839 159.516 C 314.661 159.406,314.516 159.483,314.516 159.685 C 314.516 159.888,314.335 159.987,314.113 159.906 C 313.891 159.825,313.746 159.595,313.790 159.395 C 313.835 159.196,313.653 159.032,313.387 159.032 C 313.121 159.032,312.903 158.747,312.903 158.397 C 312.903 157.963,312.749 157.821,312.416 157.949 C 312.053 158.088,311.985 157.989,312.148 157.564 C 312.292 157.189,312.245 157.067,312.014 157.210 C 311.815 157.332,311.568 157.141,311.452 156.774 C 311.337 156.414,311.126 156.193,310.981 156.282 C 310.837 156.371,310.639 156.141,310.542 155.770 C 310.445 155.400,310.211 155.192,310.022 155.309 C 309.820 155.434,309.677 155.246,309.677 154.858 C 309.677 154.239,309.322 154.026,308.548 154.182 C 308.371 154.218,308.333 154.140,308.463 154.010 C 308.594 153.879,307.796 152.864,306.689 151.755 C 305.583 150.645,302.210 147.256,299.194 144.223 C 296.177 141.190,292.585 137.587,291.210 136.217 C 289.835 134.846,288.710 133.612,288.710 133.475 C 288.710 132.948,288.131 133.258,287.971 133.871 M292.806 139.534 C 293.224 139.899,293.470 140.293,293.353 140.410 C 293.016 140.747,290.890 138.451,291.150 138.031 C 291.307 137.777,291.485 137.851,291.712 138.265 C 291.896 138.598,292.388 139.169,292.806 139.534 M143.952 145.644 C 143.730 145.896,143.548 146.269,143.548 146.473 C 143.548 146.676,143.356 146.769,143.120 146.679 C 142.538 146.456,139.677 149.464,139.677 150.299 C 139.677 150.667,139.748 150.968,139.835 150.968 C 140.198 150.968,141.290 149.824,141.290 149.444 C 141.290 149.218,141.508 149.032,141.774 149.032 C 142.040 149.032,142.258 148.806,142.258 148.529 C 142.258 148.253,142.398 148.113,142.570 148.219 C 142.742 148.325,143.067 148.116,143.293 147.754 C 143.519 147.393,143.904 147.097,144.149 147.097 C 144.512 147.097,144.519 147.005,144.187 146.606 C 143.854 146.204,143.862 146.144,144.229 146.280 C 144.834 146.502,145.621 145.967,145.345 145.520 C 145.045 145.034,144.441 145.088,143.952 145.644 M138.803 151.290 C 138.710 151.645,138.506 151.935,138.349 151.935 C 138.193 151.935,138.065 152.162,138.065 152.438 C 138.065 152.715,137.936 152.862,137.779 152.765 C 137.621 152.667,137.417 152.876,137.325 153.229 C 137.028 154.366,137.554 154.156,138.639 152.706 C 139.221 151.927,139.540 151.290,139.346 151.290 C 139.153 151.290,139.084 151.145,139.194 150.968 C 139.303 150.790,139.298 150.645,139.182 150.645 C 139.067 150.645,138.896 150.935,138.803 151.290 M135.202 156.331 C 134.989 156.798,134.889 157.254,134.979 157.344 C 135.069 157.435,135.297 157.106,135.484 156.613 C 135.926 155.449,135.704 155.227,135.202 156.331 M317.911 164.826 C 317.638 165.268,317.880 165.601,318.357 165.437 C 318.552 165.370,318.577 165.142,318.417 164.885 C 318.215 164.560,318.085 164.545,317.911 164.826 M129.516 166.017 C 129.245 166.665,129.098 167.270,129.189 167.361 C 129.280 167.452,129.355 167.448,129.355 167.351 C 129.355 167.255,129.575 166.650,129.843 166.007 C 130.112 165.365,130.259 164.839,130.170 164.839 C 130.081 164.839,129.787 165.369,129.516 166.017 M318.710 165.991 C 318.710 166.333,319.707 167.175,319.892 166.989 C 319.994 166.888,319.852 166.580,319.578 166.306 C 319.065 165.793,318.710 165.664,318.710 165.991 M181.740 197.607 C 181.847 197.888,181.935 198.196,181.935 198.292 C 181.935 198.388,182.152 198.287,182.416 198.067 C 182.969 197.608,182.773 197.097,182.043 197.097 C 181.720 197.097,181.613 197.277,181.740 197.607 M183.065 198.387 C 183.174 198.565,183.482 198.710,183.748 198.710 C 184.014 198.710,184.142 198.565,184.032 198.387 C 183.923 198.210,183.615 198.065,183.349 198.065 C 183.083 198.065,182.955 198.210,183.065 198.387 M185.806 200.000 C 185.806 200.177,186.024 200.323,186.290 200.323 C 186.556 200.323,186.774 200.177,186.774 200.000 C 186.774 199.823,186.556 199.677,186.290 199.677 C 186.024 199.677,185.806 199.823,185.806 200.000 M135.489 239.051 C 135.496 239.701,136.013 240.449,136.221 240.112 C 136.317 239.958,136.190 239.551,135.939 239.209 C 135.618 238.769,135.485 238.723,135.489 239.051 M136.590 240.928 C 136.590 241.304,136.768 241.613,136.986 241.613 C 137.204 241.613,137.609 241.936,137.885 242.330 C 138.161 242.724,138.387 242.900,138.387 242.721 C 138.387 242.542,137.983 241.911,137.488 241.319 C 136.695 240.368,136.590 240.322,136.590 240.928 M138.824 243.671 C 138.850 244.106,138.944 244.457,139.032 244.451 C 139.726 244.403,139.891 244.616,139.747 245.371 C 139.633 245.967,139.697 246.155,139.958 245.993 C 140.165 245.866,140.235 245.590,140.115 245.381 C 139.989 245.162,140.021 245.114,140.190 245.269 C 140.352 245.417,140.494 245.634,140.507 245.753 C 140.573 246.374,141.422 247.698,141.660 247.551 C 141.812 247.458,141.935 247.541,141.935 247.736 C 141.935 248.465,146.003 252.051,146.490 251.751 C 146.646 251.654,146.774 251.736,146.774 251.933 C 146.774 252.130,147.319 252.791,147.984 253.402 C 148.649 254.013,149.074 254.514,148.929 254.515 C 148.783 254.515,148.461 254.335,148.214 254.113 C 147.147 253.156,146.782 252.903,146.465 252.903 C 146.280 252.903,146.128 252.794,146.127 252.661 C 146.126 252.528,145.586 252.056,144.929 251.613 C 144.271 251.169,143.275 250.371,142.717 249.839 C 142.158 249.306,141.173 248.396,140.528 247.815 L 139.355 246.759 139.362 269.266 L 139.370 291.774 140.516 293.065 C 143.083 295.956,147.235 300.000,147.636 300.000 C 147.872 300.000,148.065 300.154,148.065 300.343 C 148.065 301.252,146.446 300.222,143.884 297.681 C 142.053 295.865,140.947 294.988,140.744 295.191 C 140.541 295.395,140.440 295.246,140.457 294.769 C 140.473 294.341,140.315 294.066,140.081 294.113 C 139.859 294.157,139.677 294.031,139.677 293.831 C 139.677 293.565,139.563 293.564,139.245 293.829 C 139.006 294.026,138.752 294.153,138.680 294.109 C 138.608 294.066,138.766 294.266,139.032 294.555 C 139.298 294.843,139.625 295.016,139.758 294.940 C 139.891 294.863,140.000 294.970,140.000 295.177 C 140.000 295.385,141.277 296.809,142.838 298.342 C 148.136 303.544,152.683 305.229,155.729 303.118 C 156.412 302.645,157.144 302.258,157.356 302.258 C 157.568 302.258,157.742 302.113,157.742 301.935 C 157.742 301.758,157.904 301.613,158.103 301.613 C 158.301 301.613,158.925 301.214,159.489 300.726 C 160.053 300.238,160.907 299.550,161.386 299.198 C 161.866 298.845,162.258 298.335,162.258 298.064 C 162.258 297.793,162.565 296.775,162.940 295.802 C 163.316 294.829,163.754 293.161,163.914 292.097 C 164.074 291.032,164.263 289.798,164.333 289.355 C 165.010 285.096,165.164 278.742,164.727 273.065 C 164.401 268.826,164.413 268.915,164.132 268.702 C 164.009 268.609,163.872 267.839,163.828 266.990 C 163.784 266.141,163.631 265.374,163.487 265.285 C 163.343 265.196,163.226 264.724,163.226 264.236 C 163.226 263.748,163.013 263.067,162.752 262.723 C 162.492 262.379,162.274 261.802,162.268 261.443 C 162.259 260.847,161.255 259.677,160.753 259.677 C 160.638 259.677,160.096 259.339,159.547 258.926 C 158.998 258.513,157.677 257.756,156.613 257.244 C 155.548 256.731,154.486 256.126,154.251 255.898 C 154.017 255.670,153.668 255.484,153.475 255.484 C 153.283 255.484,152.650 255.121,152.068 254.677 C 151.487 254.234,150.856 253.871,150.667 253.871 C 150.477 253.871,150.322 253.762,150.320 253.629 C 150.319 253.496,149.775 253.024,149.111 252.581 C 148.447 252.137,147.468 251.387,146.936 250.914 C 144.311 248.582,143.689 248.074,143.449 248.070 C 143.305 248.067,143.293 247.895,143.421 247.687 C 143.572 247.444,143.486 247.374,143.181 247.491 C 142.872 247.610,142.564 247.347,142.294 246.738 C 142.066 246.224,141.746 245.885,141.583 245.986 C 141.419 246.087,141.186 245.907,141.064 245.585 C 140.778 244.831,140.145 244.194,139.681 244.194 C 139.481 244.194,139.396 244.065,139.494 243.908 C 139.591 243.750,139.469 243.455,139.223 243.251 C 138.862 242.951,138.786 243.031,138.824 243.671 M286.135 269.186 C 285.511 269.939,285.911 270.453,286.562 269.734 C 286.885 269.377,287.004 269.013,286.832 268.907 C 286.663 268.802,286.349 268.928,286.135 269.186 M283.952 271.132 C 284.086 271.279,283.941 271.686,283.630 272.037 C 283.081 272.656,283.086 272.663,283.790 272.294 C 284.602 271.868,284.716 271.444,284.113 271.096 C 283.891 270.969,283.819 270.985,283.952 271.132 M135.806 291.449 C 135.806 291.460,136.097 291.718,136.452 292.022 C 137.062 292.545,137.097 292.543,137.097 292.001 C 137.097 291.644,136.855 291.429,136.452 291.429 C 136.097 291.429,135.806 291.438,135.806 291.449 " stroke="none" fill="#04fca0" fill-rule="evenodd"></path><path id="path1" d="M245.806 97.823 C 245.806 97.956,245.570 98.065,245.280 98.065 C 244.713 98.065,242.489 99.323,242.312 99.744 C 242.253 99.885,242.014 100.000,241.782 100.000 C 241.549 100.000,241.268 100.239,241.156 100.530 C 241.044 100.822,240.883 100.991,240.798 100.906 C 240.612 100.719,224.839 116.385,224.839 116.757 C 224.839 116.900,224.621 117.198,224.355 117.419 C 224.089 117.640,223.871 118.093,223.871 118.427 C 223.871 118.760,223.760 119.032,223.624 119.032 C 222.773 119.032,221.808 124.845,222.581 125.323 C 222.758 125.432,222.903 125.781,222.903 126.097 C 222.903 126.414,223.264 127.312,223.706 128.094 C 224.147 128.876,224.607 129.734,224.728 130.000 C 225.358 131.379,228.677 133.741,230.477 134.089 C 230.828 134.156,231.256 134.353,231.429 134.525 C 231.601 134.698,231.976 134.839,232.262 134.839 C 232.548 134.839,233.535 135.202,234.454 135.645 C 235.374 136.089,236.261 136.452,236.427 136.452 C 236.593 136.452,236.920 136.634,237.154 136.857 C 237.389 137.079,238.306 137.622,239.194 138.062 C 240.081 138.502,241.334 139.227,241.978 139.673 C 242.622 140.119,243.475 140.702,243.872 140.968 C 244.270 141.234,244.785 141.633,245.016 141.855 C 245.248 142.077,245.527 142.258,245.637 142.258 C 245.746 142.258,246.186 142.585,246.615 142.984 C 247.044 143.383,247.774 144.000,248.238 144.355 C 248.703 144.710,249.664 145.544,250.374 146.210 C 251.084 146.875,251.799 147.419,251.962 147.419 C 252.125 147.419,252.258 147.605,252.258 147.832 C 252.258 148.294,253.384 149.355,253.875 149.355 C 254.050 149.355,254.157 149.490,254.113 149.655 C 254.069 149.820,254.323 150.193,254.677 150.485 C 255.032 150.777,255.105 150.904,254.839 150.768 C 254.428 150.559,254.419 150.601,254.781 151.048 C 255.016 151.337,255.513 151.619,255.885 151.674 C 256.258 151.729,256.621 151.992,256.693 152.258 C 256.809 152.688,256.785 152.688,256.481 152.258 C 256.081 151.692,256.058 152.138,256.440 153.065 C 256.694 153.678,256.722 153.671,257.026 152.903 L 257.345 152.097 257.786 153.065 C 258.361 154.330,259.080 155.170,259.412 154.964 C 259.558 154.874,259.677 155.269,259.677 155.841 C 259.677 156.413,259.769 156.790,259.882 156.678 C 260.163 156.396,261.290 157.884,261.290 158.538 C 261.290 158.831,261.435 158.981,261.613 158.871 C 262.013 158.624,262.042 157.419,261.648 157.419 C 261.490 157.419,261.269 157.056,261.158 156.613 C 261.047 156.169,260.813 155.806,260.639 155.806 C 260.465 155.806,260.323 155.639,260.323 155.434 C 260.323 155.229,259.960 154.585,259.516 154.004 C 259.073 153.422,258.706 152.828,258.703 152.683 C 258.699 152.538,258.411 152.056,258.065 151.613 C 257.452 150.830,257.433 150.139,257.427 128.148 L 257.419 105.490 258.107 106.052 C 258.485 106.360,259.410 107.194,260.161 107.903 C 264.697 112.188,265.590 112.454,261.636 108.342 C 260.210 106.859,259.040 105.440,259.038 105.188 C 259.035 104.937,258.948 104.816,258.844 104.919 C 258.507 105.256,257.380 103.852,257.274 102.963 C 257.217 102.487,257.154 101.979,257.134 101.836 C 257.082 101.473,256.452 101.899,256.452 102.296 C 256.452 102.474,256.595 102.530,256.770 102.422 C 256.959 102.305,257.004 102.447,256.882 102.766 C 256.707 103.221,256.604 103.174,256.235 102.469 C 255.687 101.424,254.294 100.007,254.052 100.249 C 253.952 100.349,253.871 100.188,253.871 99.892 C 253.871 99.582,253.616 99.355,253.265 99.355 C 252.932 99.355,252.460 99.056,252.217 98.692 C 251.973 98.327,251.484 97.975,251.129 97.910 C 250.774 97.845,250.484 97.765,250.484 97.732 C 250.484 97.699,249.431 97.652,248.145 97.627 C 246.859 97.601,245.806 97.690,245.806 97.823 M264.764 112.258 C 265.145 112.613,265.537 112.903,265.634 112.903 C 265.732 112.903,265.631 112.613,265.409 112.258 C 265.187 111.903,264.796 111.613,264.539 111.613 C 264.206 111.613,264.271 111.799,264.764 112.258 M111.420 135.717 C 110.378 136.742,109.414 137.544,109.279 137.500 C 109.143 137.456,109.032 137.575,109.032 137.765 C 109.032 137.955,108.825 138.318,108.571 138.571 C 108.318 138.825,107.955 139.032,107.765 139.032 C 107.575 139.032,107.419 139.188,107.419 139.378 C 107.419 139.568,107.212 139.931,106.959 140.184 C 106.705 140.438,106.342 140.645,106.152 140.645 C 105.962 140.645,105.806 140.801,105.806 140.991 C 105.806 141.181,105.599 141.544,105.346 141.797 C 105.092 142.051,104.729 142.258,104.539 142.258 C 104.349 142.258,104.194 142.414,104.194 142.604 C 104.194 142.794,103.986 143.157,103.733 143.410 C 103.479 143.664,103.116 143.871,102.926 143.871 C 102.736 143.871,102.581 144.089,102.581 144.355 C 102.581 144.621,102.354 144.839,102.078 144.839 C 101.801 144.839,101.665 144.984,101.774 145.161 C 101.884 145.339,101.747 145.484,101.471 145.484 C 101.194 145.484,100.968 145.692,100.968 145.946 C 100.968 146.200,100.704 146.492,100.381 146.594 C 100.058 146.697,99.470 147.219,99.074 147.754 C 98.450 148.599,97.414 148.856,97.917 148.042 C 98.203 147.580,97.751 147.686,97.235 148.203 C 96.982 148.456,96.774 148.843,96.774 149.063 C 96.774 149.283,96.677 149.365,96.558 149.247 C 96.294 148.982,95.161 149.963,95.161 150.457 C 95.161 150.654,94.835 150.963,94.435 151.145 C 94.036 151.327,93.746 151.651,93.790 151.867 C 93.835 152.082,93.663 152.258,93.409 152.258 C 93.155 152.258,92.855 152.545,92.744 152.897 C 92.633 153.248,92.376 153.502,92.173 153.461 C 91.970 153.420,91.798 153.677,91.789 154.032 C 91.780 154.449,91.570 154.661,91.198 154.631 C 90.712 154.591,90.687 154.664,91.037 155.096 C 91.353 155.487,91.356 155.550,91.048 155.365 C 90.827 155.232,90.645 155.267,90.645 155.442 C 90.645 155.618,90.319 155.811,89.919 155.872 C 89.520 155.933,89.233 156.172,89.282 156.403 C 89.331 156.633,89.239 156.740,89.077 156.640 C 88.688 156.400,88.002 157.242,88.309 157.581 C 88.441 157.727,88.367 157.741,88.145 157.613 C 87.886 157.464,87.628 157.678,87.427 158.206 C 87.254 158.661,86.968 159.032,86.792 159.032 C 85.996 159.032,50.645 194.849,50.645 195.656 C 50.645 195.898,50.269 196.501,49.810 196.997 C 48.636 198.264,48.715 203.637,49.919 204.436 C 50.319 204.701,50.645 205.124,50.645 205.376 C 50.645 205.942,50.776 206.102,54.355 209.904 C 58.583 214.396,61.648 217.419,61.973 217.419 C 62.130 217.419,62.258 217.552,62.258 217.713 C 62.258 218.086,67.090 222.903,67.464 222.903 C 67.617 222.903,67.742 223.038,67.742 223.203 C 67.742 223.460,71.368 227.121,74.274 229.797 C 74.762 230.247,75.161 230.682,75.161 230.764 C 75.161 230.847,76.069 231.786,77.177 232.852 C 82.922 238.374,86.452 241.974,86.452 242.311 C 86.452 242.519,86.546 242.593,86.662 242.477 C 86.778 242.362,87.214 242.728,87.630 243.293 C 88.046 243.857,88.387 244.218,88.387 244.095 C 88.387 243.972,88.677 244.161,89.032 244.516 C 89.387 244.871,89.879 245.161,90.125 245.161 C 90.372 245.161,90.553 245.343,90.529 245.565 C 90.504 245.786,90.587 246.010,90.713 246.061 C 91.021 246.187,93.374 248.525,93.928 249.256 C 95.019 250.696,96.150 251.455,96.470 250.959 C 96.709 250.588,96.758 250.638,96.695 251.189 C 96.650 251.577,96.742 251.892,96.899 251.888 C 97.057 251.884,97.309 252.074,97.459 252.311 C 97.680 252.660,97.733 252.661,97.737 252.320 C 97.740 252.087,97.888 251.987,98.066 252.098 C 98.244 252.208,98.338 252.615,98.274 253.004 C 98.211 253.392,98.221 253.528,98.296 253.306 C 98.585 252.463,99.433 252.871,99.302 253.790 C 99.223 254.348,99.389 254.887,99.749 255.242 C 100.065 255.552,100.323 255.670,100.323 255.503 C 100.323 255.336,100.177 255.110,100.000 255.000 C 99.823 254.890,99.677 254.669,99.677 254.507 C 99.677 253.905,100.867 254.703,102.790 256.596 C 110.596 264.279,112.257 265.464,105.754 258.710 C 103.447 256.314,100.810 253.507,99.893 252.471 L 98.226 250.587 98.065 200.561 L 97.903 150.534 100.484 147.825 C 103.796 144.348,109.507 138.428,111.843 136.052 C 112.844 135.033,113.584 134.122,113.489 134.027 C 113.393 133.931,112.463 134.692,111.420 135.717 M257.742 155.085 C 257.742 155.428,258.435 156.129,258.774 156.129 C 259.275 156.129,259.024 155.502,258.387 155.161 C 258.032 154.971,257.742 154.937,257.742 155.085 M261.989 159.722 C 262.048 160.141,262.242 160.448,262.419 160.403 C 262.896 160.284,262.811 159.270,262.312 159.104 C 262.017 159.006,261.915 159.200,261.989 159.722 M262.903 161.471 C 262.903 161.939,263.043 162.210,263.226 162.097 C 263.403 161.987,263.548 161.616,263.548 161.271 C 263.548 160.927,263.403 160.645,263.226 160.645 C 263.048 160.645,262.903 161.017,262.903 161.471 M263.548 162.884 C 263.548 163.590,264.052 164.038,264.334 163.583 C 264.569 163.201,264.215 162.258,263.836 162.258 C 263.678 162.258,263.548 162.540,263.548 162.884 M264.516 164.801 C 264.516 165.155,264.661 165.536,264.839 165.645 C 265.016 165.755,265.161 165.554,265.161 165.199 C 265.161 164.845,265.016 164.464,264.839 164.355 C 264.661 164.245,264.516 164.446,264.516 164.801 M265.402 166.532 C 265.319 166.754,265.365 167.226,265.506 167.581 C 265.714 168.106,265.765 168.031,265.784 167.177 C 265.807 166.087,265.661 165.840,265.402 166.532 M266.129 169.497 C 266.129 169.951,266.274 170.323,266.452 170.323 C 266.629 170.323,266.774 170.041,266.774 169.696 C 266.774 169.352,266.629 168.981,266.452 168.871 C 266.269 168.758,266.129 169.029,266.129 169.497 M267.172 172.258 C 267.172 172.879,267.238 173.133,267.319 172.823 C 267.400 172.512,267.400 172.004,267.319 171.694 C 267.238 171.383,267.172 171.637,267.172 172.258 M267.742 175.142 C 267.742 175.685,267.887 176.129,268.065 176.129 C 268.242 176.129,268.387 175.775,268.387 175.342 C 268.387 174.909,268.242 174.464,268.065 174.355 C 267.876 174.239,267.742 174.567,267.742 175.142 M268.791 178.871 C 268.795 179.581,268.861 179.833,268.938 179.432 C 269.015 179.030,269.012 178.450,268.931 178.141 C 268.851 177.833,268.787 178.161,268.791 178.871 M269.378 182.984 C 269.365 183.472,269.500 183.871,269.677 183.871 C 270.056 183.871,270.056 183.623,269.677 182.742 C 269.432 182.170,269.398 182.198,269.378 182.984 M270.459 195.161 C 270.459 198.798,270.506 200.286,270.563 198.468 C 270.621 196.649,270.621 193.673,270.563 191.855 C 270.506 190.036,270.459 191.524,270.459 195.161 M268.791 210.806 C 268.795 211.516,268.861 211.768,268.938 211.367 C 269.015 210.966,269.012 210.385,268.931 210.077 C 268.851 209.768,268.787 210.097,268.791 210.806 M267.984 213.412 C 267.851 213.546,267.746 214.031,267.752 214.489 C 267.760 215.220,267.803 215.252,268.096 214.748 C 268.463 214.117,268.371 213.021,267.984 213.412 M266.129 219.535 C 266.129 220.003,266.269 220.274,266.452 220.161 C 266.629 220.052,266.774 219.680,266.774 219.336 C 266.774 218.991,266.629 218.710,266.452 218.710 C 266.274 218.710,266.129 219.081,266.129 219.535 M265.347 221.506 C 265.233 221.801,265.290 222.193,265.473 222.377 C 265.702 222.606,265.806 222.438,265.806 221.839 C 265.806 220.844,265.645 220.727,265.347 221.506 M264.516 223.567 C 264.516 223.933,264.661 224.142,264.839 224.032 C 265.016 223.923,265.161 223.624,265.161 223.368 C 265.161 223.112,265.016 222.903,264.839 222.903 C 264.661 222.903,264.516 223.202,264.516 223.567 M263.734 224.731 C 263.620 225.027,263.677 225.419,263.860 225.602 C 264.090 225.831,264.194 225.664,264.194 225.065 C 264.194 224.069,264.032 223.953,263.734 224.731 M262.903 226.452 C 262.903 226.806,263.048 227.097,263.226 227.097 C 263.403 227.097,263.548 226.806,263.548 226.452 C 263.548 226.097,263.403 225.806,263.226 225.806 C 263.048 225.806,262.903 226.097,262.903 226.452 M262.113 227.821 C 261.978 228.130,261.738 228.303,261.579 228.205 C 261.420 228.107,261.290 228.406,261.290 228.871 C 261.290 229.387,261.157 229.633,260.946 229.503 C 260.757 229.386,260.522 229.593,260.425 229.964 C 260.329 230.335,260.121 230.558,259.963 230.461 C 259.806 230.364,259.677 230.549,259.677 230.871 C 259.677 231.194,259.315 231.850,258.871 232.328 C 258.427 232.806,258.065 233.358,258.065 233.553 C 258.065 233.749,257.935 233.829,257.776 233.731 C 257.618 233.633,257.390 233.943,257.270 234.421 C 257.110 235.059,256.981 235.173,256.782 234.851 C 256.633 234.610,256.586 234.219,256.677 233.981 C 257.141 232.773,256.075 233.773,255.351 235.225 C 254.892 236.147,254.512 236.691,254.506 236.434 C 254.499 236.099,254.360 236.147,254.015 236.604 C 253.750 236.953,253.605 237.425,253.692 237.652 C 253.779 237.879,253.638 238.065,253.377 238.065 C 253.116 238.065,252.903 238.355,252.903 238.710 C 252.903 239.065,252.794 239.322,252.661 239.282 C 252.293 239.170,248.782 242.811,248.549 243.547 C 248.436 243.903,248.111 244.194,247.828 244.194 C 247.544 244.194,247.390 244.272,247.485 244.367 C 247.581 244.463,246.807 245.420,245.765 246.494 C 244.723 247.569,243.871 248.580,243.871 248.740 C 243.871 248.901,243.740 248.996,243.581 248.952 C 243.421 248.907,243.280 248.984,243.268 249.123 C 243.255 249.261,242.116 250.523,240.736 251.926 C 237.288 255.432,236.200 256.686,235.965 257.429 C 235.854 257.779,235.644 258.065,235.499 258.065 C 235.353 258.065,235.156 258.464,235.060 258.952 C 234.586 261.364,234.112 262.903,233.845 262.903 C 233.682 262.903,233.548 263.521,233.548 264.276 C 233.548 265.032,233.400 266.157,233.220 266.776 C 232.683 268.617,232.772 282.234,233.324 282.786 C 233.447 282.910,233.548 283.991,233.548 285.188 C 233.548 286.423,233.695 287.414,233.887 287.479 C 234.074 287.541,234.310 288.366,234.411 289.313 C 234.513 290.260,234.883 291.782,235.234 292.695 C 235.584 293.608,235.946 294.681,236.038 295.081 C 236.129 295.480,236.332 295.806,236.489 295.806 C 236.646 295.806,236.774 296.079,236.774 296.412 C 236.774 296.745,236.992 297.198,237.258 297.419 C 237.524 297.640,237.742 298.005,237.742 298.229 C 237.742 298.454,238.395 299.300,239.194 300.110 C 239.992 300.920,240.645 301.494,240.645 301.386 C 240.645 301.279,240.918 301.437,241.251 301.738 C 241.584 302.040,242.270 302.361,242.776 302.453 C 243.282 302.545,243.806 302.793,243.940 303.004 C 244.074 303.215,244.188 303.242,244.194 303.065 C 244.199 302.887,244.337 302.953,244.500 303.210 C 245.033 304.053,250.000 303.776,250.000 302.904 C 250.000 302.754,250.445 302.534,250.990 302.415 C 251.534 302.295,252.049 302.016,252.134 301.794 C 252.219 301.573,252.681 301.413,253.160 301.439 C 253.747 301.471,254.141 301.270,254.366 300.824 C 254.559 300.443,254.993 300.177,255.388 300.198 C 255.770 300.218,256.014 300.075,255.939 299.875 C 255.776 299.445,257.090 297.917,257.661 297.871 C 258.555 297.799,258.710 297.727,258.710 297.380 C 258.710 297.121,258.591 297.116,258.293 297.363 C 257.979 297.624,257.865 297.559,257.831 297.099 C 257.800 296.692,257.939 296.547,258.247 296.666 C 258.528 296.774,258.710 296.644,258.710 296.335 C 258.710 296.017,258.890 295.896,259.192 296.012 C 259.457 296.113,259.574 296.363,259.452 296.566 C 259.331 296.769,259.477 296.736,259.777 296.493 C 260.419 295.972,260.471 295.775,259.939 295.887 C 259.727 295.931,259.497 295.702,259.426 295.376 C 259.316 294.874,259.395 294.837,259.950 295.135 C 260.877 295.631,261.097 295.567,260.504 294.974 C 259.986 294.456,260.118 293.706,260.667 294.046 C 260.833 294.148,260.968 294.005,260.968 293.729 C 260.968 293.452,261.185 293.226,261.452 293.226 C 261.718 293.226,261.935 292.999,261.935 292.723 C 261.935 292.446,262.081 292.310,262.258 292.419 C 262.435 292.529,262.581 292.392,262.581 292.116 C 262.581 291.839,262.798 291.613,263.065 291.613 C 263.331 291.613,263.548 291.387,263.548 291.110 C 263.548 290.833,263.694 290.697,263.871 290.806 C 264.048 290.916,264.194 290.847,264.194 290.653 C 264.194 290.459,265.500 288.972,267.097 287.349 C 270.092 284.305,271.191 282.638,268.468 285.269 C 267.625 286.083,265.629 287.990,264.032 289.505 C 262.435 291.020,260.294 293.067,259.274 294.052 L 257.419 295.844 257.419 265.982 C 257.419 234.728,257.379 235.673,258.787 234.072 C 259.095 233.722,259.431 233.170,259.534 232.846 C 259.637 232.523,259.856 232.258,260.022 232.258 C 260.187 232.258,260.323 232.048,260.323 231.790 C 260.323 231.533,260.504 231.206,260.726 231.064 C 260.948 230.923,261.347 230.371,261.613 229.839 C 261.878 229.306,262.219 228.781,262.370 228.671 C 262.521 228.561,262.580 228.198,262.501 227.865 C 262.368 227.302,262.340 227.299,262.113 227.821 " stroke="none" fill="#04fbbf" fill-rule="evenodd"></path><path id="path2" d="M167.742 108.206 C 167.742 108.576,169.355 110.440,169.959 110.769 C 170.248 110.926,169.903 110.420,169.194 109.645 C 168.484 108.870,167.867 108.173,167.823 108.096 C 167.778 108.020,167.742 108.069,167.742 108.206 M172.258 113.313 C 172.258 113.534,172.548 113.897,172.903 114.119 C 173.258 114.340,173.548 114.407,173.548 114.268 C 173.548 114.128,173.258 113.766,172.903 113.462 C 172.467 113.088,172.258 113.040,172.258 113.313 M175.806 116.409 C 175.806 116.631,175.663 116.724,175.488 116.615 C 175.301 116.500,175.253 116.637,175.371 116.946 C 175.517 117.325,175.641 117.365,175.812 117.087 C 175.991 116.798,176.090 116.811,176.207 117.141 C 176.293 117.383,176.444 117.508,176.542 117.419 C 176.641 117.330,176.516 116.976,176.264 116.631 C 176.012 116.287,175.806 116.187,175.806 116.409 M176.129 118.115 C 176.129 118.276,176.346 118.491,176.611 118.592 C 176.876 118.694,177.013 118.907,176.915 119.066 C 176.816 119.225,176.962 119.355,177.239 119.355 C 177.516 119.355,177.742 119.521,177.742 119.725 C 177.742 119.928,178.613 120.958,179.677 122.013 C 180.742 123.067,181.613 124.050,181.613 124.196 C 181.613 124.343,181.794 124.527,182.016 124.606 C 182.238 124.686,182.345 124.833,182.254 124.933 C 182.162 125.034,181.326 124.401,180.394 123.526 C 179.462 122.651,178.557 121.935,178.382 121.935 C 178.175 121.935,178.068 134.581,178.075 158.145 C 178.085 195.988,178.067 195.463,179.390 195.495 C 179.967 195.508,181.442 196.730,181.189 196.983 C 180.992 197.180,180.766 197.095,179.367 196.295 C 178.833 195.989,178.448 195.945,178.189 196.159 C 177.928 196.376,177.751 196.345,177.637 196.062 C 177.546 195.833,177.459 195.972,177.445 196.371 C 177.431 196.770,177.601 197.097,177.823 197.098 C 178.044 197.099,178.863 197.522,179.641 198.039 C 180.420 198.555,181.255 198.902,181.496 198.809 C 181.738 198.717,181.935 198.838,181.935 199.080 C 181.935 199.322,182.374 199.714,182.910 199.951 C 183.447 200.189,184.069 200.551,184.294 200.756 C 184.957 201.361,186.084 201.935,186.609 201.935 C 186.877 201.935,187.097 202.070,187.097 202.234 C 187.097 202.399,187.496 202.735,187.984 202.981 C 189.744 203.869,192.748 205.569,193.048 205.846 C 193.991 206.717,199.667 205.786,199.675 204.758 C 199.677 204.625,199.860 204.516,200.084 204.516 C 200.308 204.516,200.882 204.153,201.360 203.710 C 201.839 203.266,202.347 202.903,202.489 202.903 C 202.632 202.903,203.140 202.540,203.618 202.097 C 204.097 201.653,204.574 201.290,204.679 201.290 C 204.961 201.290,208.853 198.589,208.978 198.306 C 209.038 198.173,209.280 198.065,209.516 198.065 C 209.753 198.065,209.995 197.956,210.054 197.823 C 210.211 197.469,214.107 194.839,214.473 194.839 C 214.645 194.839,214.833 194.730,214.892 194.597 C 215.056 194.228,218.954 191.613,219.339 191.613 C 219.525 191.613,219.677 191.501,219.677 191.364 C 219.677 191.227,220.222 190.828,220.887 190.477 C 221.552 190.127,222.273 189.695,222.489 189.517 C 222.704 189.339,223.097 189.012,223.362 188.790 C 223.627 188.569,223.938 188.387,224.054 188.387 C 224.170 188.387,224.866 187.766,225.600 187.006 C 228.170 184.349,228.710 182.218,228.710 174.721 L 228.710 169.129 208.829 149.242 C 197.895 138.304,188.823 129.355,188.668 129.355 C 188.514 129.355,188.387 129.234,188.387 129.086 C 188.387 128.770,180.650 120.948,180.635 121.249 C 180.630 121.360,180.478 121.198,180.297 120.887 C 180.116 120.577,179.762 120.323,179.510 120.323 C 179.216 120.323,179.126 120.131,179.258 119.786 C 179.376 119.479,179.332 119.331,179.155 119.440 C 178.985 119.546,178.572 119.225,178.238 118.727 C 177.662 117.871,176.129 117.426,176.129 118.115 M160.000 155.250 C 160.000 155.712,160.151 156.184,160.336 156.298 C 160.556 156.434,160.595 156.191,160.451 155.592 C 160.155 154.356,160.000 154.239,160.000 155.250 M309.677 155.180 C 309.677 155.368,309.824 155.431,310.003 155.321 C 310.182 155.210,310.463 155.456,310.627 155.866 C 310.806 156.311,310.935 156.410,310.947 156.113 C 310.969 155.587,310.374 154.839,309.935 154.839 C 309.794 154.839,309.677 154.992,309.677 155.180 M312.142 157.579 C 311.985 157.989,312.057 158.087,312.416 157.949 C 312.749 157.821,312.903 157.963,312.903 158.397 C 312.903 158.757,313.121 159.032,313.406 159.032 C 313.683 159.032,313.819 159.178,313.708 159.357 C 313.598 159.536,313.734 159.769,314.010 159.875 C 314.286 159.981,314.432 160.198,314.334 160.356 C 314.236 160.515,314.370 160.645,314.631 160.645 C 314.893 160.645,315.181 160.827,315.270 161.048 C 315.360 161.270,315.444 161.116,315.458 160.707 C 315.473 160.284,315.343 160.049,315.159 160.163 C 314.980 160.273,314.735 160.100,314.613 159.779 C 314.148 158.547,312.376 156.970,312.142 157.579 M315.806 161.427 C 315.806 161.884,316.060 162.538,316.371 162.880 C 317.567 164.198,317.799 164.566,317.569 164.779 C 317.438 164.901,317.266 164.819,317.187 164.597 C 317.108 164.375,316.849 164.194,316.613 164.194 C 316.376 164.194,316.118 164.012,316.039 163.790 C 315.553 162.430,315.489 167.384,315.563 200.802 L 315.645 237.839 317.700 235.935 C 318.830 234.889,320.187 233.624,320.716 233.124 C 322.840 231.120,321.725 232.617,319.073 235.332 C 317.518 236.923,316.148 238.489,316.028 238.811 C 315.909 239.132,315.665 239.305,315.486 239.195 C 315.307 239.085,315.161 239.208,315.161 239.470 C 315.161 239.732,315.336 240.004,315.549 240.075 C 315.850 240.176,315.850 240.258,315.549 240.444 C 315.336 240.576,315.161 240.530,315.161 240.342 C 315.161 240.154,315.016 240.000,314.839 240.000 C 314.661 240.000,314.516 240.218,314.516 240.484 C 314.516 240.750,314.316 240.968,314.071 240.968 C 313.827 240.968,313.447 241.401,313.228 241.931 C 313.008 242.461,312.730 242.834,312.610 242.760 C 312.490 242.686,312.371 242.906,312.345 243.248 C 312.291 243.972,312.468 244.029,313.030 243.468 C 313.473 243.025,313.537 242.852,313.571 242.016 C 313.590 241.533,313.634 241.545,313.871 242.097 C 314.133 242.706,314.149 242.701,314.171 241.997 C 314.184 241.581,314.338 241.341,314.520 241.454 C 314.879 241.676,316.774 239.933,316.774 239.380 C 316.774 239.189,316.889 239.069,317.030 239.113 C 317.445 239.244,349.355 207.179,349.355 206.630 C 349.355 206.355,349.472 206.129,349.615 206.129 C 351.250 206.129,351.501 198.208,349.954 195.484 C 348.912 193.651,318.628 162.975,318.027 163.145 C 317.870 163.190,317.742 163.069,317.742 162.878 C 317.742 162.687,317.306 162.096,316.774 161.563 L 315.806 160.596 315.806 161.427 M318.357 165.437 C 317.880 165.601,317.638 165.268,317.911 164.826 C 318.085 164.545,318.215 164.560,318.417 164.885 C 318.577 165.142,318.552 165.370,318.357 165.437 M319.578 166.306 C 319.852 166.580,319.994 166.888,319.892 166.989 C 319.707 167.175,318.710 166.333,318.710 165.991 C 318.710 165.664,319.065 165.793,319.578 166.306 M160.667 178.387 C 160.666 178.653,160.879 179.153,161.139 179.497 C 161.742 180.294,161.735 179.770,161.129 178.710 C 160.862 178.242,160.668 178.106,160.667 178.387 M168.724 190.995 C 168.922 191.365,169.149 191.604,169.227 191.525 C 169.453 191.300,168.995 190.323,168.664 190.323 C 168.499 190.323,168.526 190.625,168.724 190.995 M170.968 192.742 C 171.189 193.008,171.552 193.226,171.774 193.226 C 171.997 193.226,172.360 193.444,172.581 193.710 C 172.802 193.976,173.137 194.194,173.326 194.194 C 173.745 194.194,172.639 193.130,171.694 192.624 C 170.756 192.122,170.489 192.165,170.968 192.742 M173.871 194.374 C 173.871 194.650,174.017 194.786,174.196 194.676 C 174.374 194.566,174.608 194.702,174.714 194.980 C 174.821 195.257,175.092 195.484,175.318 195.484 C 175.543 195.484,175.908 195.702,176.129 195.968 C 176.619 196.558,177.097 196.596,177.097 196.045 C 177.097 195.528,175.881 194.755,175.468 195.010 C 175.296 195.116,175.048 194.939,174.917 194.617 C 174.615 193.878,173.871 193.705,173.871 194.374 M122.669 197.097 C 122.669 197.895,122.731 198.222,122.808 197.823 C 122.885 197.423,122.885 196.770,122.808 196.371 C 122.731 195.972,122.669 196.298,122.669 197.097 M182.719 197.383 C 182.817 197.540,182.680 197.848,182.416 198.067 C 182.152 198.287,181.935 198.388,181.935 198.292 C 181.935 198.196,181.847 197.888,181.740 197.607 C 181.530 197.061,182.397 196.862,182.719 197.383 M184.032 198.387 C 184.142 198.565,184.014 198.710,183.748 198.710 C 183.482 198.710,183.174 198.565,183.065 198.387 C 182.955 198.210,183.083 198.065,183.349 198.065 C 183.615 198.065,183.923 198.210,184.032 198.387 M186.774 200.000 C 186.774 200.177,186.556 200.323,186.290 200.323 C 186.024 200.323,185.806 200.177,185.806 200.000 C 185.806 199.823,186.024 199.677,186.290 199.677 C 186.556 199.677,186.774 199.823,186.774 200.000 M307.955 248.007 C 307.660 248.333,307.419 248.724,307.419 248.877 C 307.419 249.029,307.724 248.827,308.097 248.427 C 308.470 248.027,308.711 247.635,308.633 247.557 C 308.555 247.479,308.250 247.682,307.955 248.007 M151.290 253.988 C 151.290 254.077,151.726 254.460,152.258 254.839 C 152.790 255.218,153.226 255.455,153.226 255.367 C 153.226 255.278,152.790 254.895,152.258 254.516 C 151.726 254.137,151.290 253.900,151.290 253.988 M163.871 267.581 C 163.871 268.202,163.987 268.710,164.129 268.710 C 164.271 268.710,164.327 268.202,164.255 267.581 C 164.182 266.960,164.066 266.452,163.997 266.452 C 163.928 266.452,163.871 266.960,163.871 267.581 M164.608 270.806 C 164.611 271.694,164.673 272.018,164.748 271.528 C 164.822 271.037,164.820 270.312,164.743 269.915 C 164.667 269.518,164.606 269.919,164.608 270.806 M164.535 287.581 C 164.479 288.290,164.399 289.207,164.357 289.618 C 164.310 290.075,164.395 290.250,164.578 290.068 C 164.742 289.904,164.822 288.987,164.756 288.030 C 164.648 286.469,164.625 286.423,164.535 287.581 M163.946 291.935 C 163.946 292.556,164.012 292.810,164.093 292.500 C 164.174 292.190,164.174 291.681,164.093 291.371 C 164.012 291.060,163.946 291.315,163.946 291.935 M162.446 296.982 C 162.139 297.783,162.478 297.892,162.888 297.124 C 163.087 296.754,163.114 296.452,162.949 296.452 C 162.784 296.452,162.558 296.690,162.446 296.982 " stroke="none" fill="#04fc87" fill-rule="evenodd"></path><path id="path3" d="M254.516 100.295 C 254.516 100.467,254.784 100.798,255.111 101.030 C 255.439 101.262,255.924 101.869,256.190 102.380 C 256.588 103.144,256.710 103.212,256.882 102.766 C 257.004 102.447,256.959 102.305,256.770 102.422 C 256.595 102.530,256.452 102.347,256.452 102.015 C 256.452 101.683,256.016 101.090,255.484 100.696 C 254.952 100.303,254.516 100.122,254.516 100.295 M257.325 102.782 C 257.224 102.883,257.229 103.195,257.336 103.475 C 257.607 104.181,258.616 105.147,258.844 104.919 C 258.948 104.816,259.035 104.937,259.038 105.188 C 259.040 105.440,260.210 106.859,261.636 108.342 C 265.590 112.454,264.697 112.188,260.161 107.903 C 259.410 107.194,258.485 106.360,258.107 106.052 L 257.419 105.490 257.427 128.148 C 257.433 150.139,257.452 150.830,258.065 151.613 C 258.411 152.056,258.699 152.538,258.703 152.683 C 258.706 152.828,259.073 153.422,259.516 154.004 C 259.960 154.585,260.323 155.229,260.323 155.434 C 260.323 155.639,260.465 155.806,260.639 155.806 C 260.813 155.806,261.047 156.169,261.158 156.613 C 261.269 157.056,261.490 157.419,261.648 157.419 C 262.042 157.419,262.013 158.624,261.613 158.871 C 261.435 158.981,261.290 158.831,261.290 158.538 C 261.290 157.884,260.163 156.396,259.882 156.678 C 259.769 156.790,259.677 156.413,259.677 155.841 C 259.677 155.269,259.558 154.874,259.412 154.964 C 259.081 155.169,258.363 154.332,257.783 153.065 C 257.378 152.179,257.321 152.152,257.103 152.742 C 256.783 153.614,257.317 154.689,258.293 155.133 C 258.770 155.350,259.026 155.680,258.925 155.944 C 258.831 156.188,258.853 156.487,258.974 156.608 C 259.095 156.729,259.203 156.925,259.215 157.043 C 259.277 157.667,260.467 159.626,260.698 159.483 C 260.847 159.392,260.986 159.470,261.008 159.658 C 261.030 159.846,261.067 160.150,261.089 160.334 C 261.111 160.518,261.274 160.772,261.452 160.899 C 261.629 161.025,261.814 161.486,261.863 161.921 C 261.912 162.357,262.075 162.793,262.226 162.889 C 262.376 162.986,262.602 163.536,262.727 164.113 C 262.852 164.690,263.088 165.161,263.251 165.161 C 263.415 165.161,263.548 165.516,263.548 165.949 C 263.548 166.382,263.696 166.827,263.876 166.939 C 264.057 167.050,264.121 167.276,264.018 167.442 C 263.916 167.607,263.995 167.742,264.194 167.742 C 264.392 167.742,264.489 167.851,264.409 167.984 C 264.187 168.353,265.973 173.597,266.232 173.338 C 266.357 173.213,266.406 173.593,266.341 174.182 C 266.277 174.771,266.435 175.676,266.693 176.193 C 266.951 176.710,267.089 177.416,266.998 177.760 C 266.908 178.105,266.966 178.387,267.127 178.387 C 267.288 178.387,267.419 178.950,267.419 179.638 C 267.419 180.326,267.626 181.382,267.877 181.985 C 268.129 182.588,268.421 184.449,268.525 186.120 C 268.643 188.001,268.867 189.256,269.115 189.413 C 269.383 189.583,269.394 189.669,269.151 189.672 C 268.526 189.681,268.410 190.944,268.980 191.515 C 269.275 191.810,269.480 192.097,269.435 192.154 C 269.391 192.211,269.365 192.367,269.378 192.500 C 269.510 193.851,269.244 197.605,269.011 197.688 C 268.573 197.844,268.642 198.624,269.113 198.844 C 269.435 198.995,269.435 199.070,269.113 199.220 C 268.891 199.324,268.710 199.550,268.710 199.723 C 268.710 199.896,268.853 199.949,269.029 199.841 C 269.211 199.728,269.266 199.857,269.156 200.143 C 269.051 200.417,268.858 200.576,268.729 200.496 C 268.599 200.415,268.524 201.614,268.562 203.159 C 268.612 205.192,268.506 206.111,268.178 206.487 C 267.899 206.806,267.779 207.444,267.866 208.146 C 267.944 208.773,267.816 209.654,267.583 210.104 C 267.350 210.554,267.242 211.005,267.343 211.106 C 267.444 211.207,267.394 211.290,267.231 211.290 C 267.069 211.290,266.944 211.835,266.955 212.500 C 266.965 213.165,266.721 214.284,266.412 214.986 C 266.103 215.688,265.922 216.378,266.010 216.520 C 266.098 216.662,265.964 216.858,265.712 216.955 C 265.446 217.056,265.291 217.471,265.343 217.940 C 265.395 218.422,265.239 218.824,264.955 218.933 C 264.693 219.033,264.550 219.300,264.637 219.526 C 264.723 219.752,264.695 220.036,264.575 220.157 C 264.454 220.277,264.346 220.473,264.335 220.591 C 264.281 221.169,261.474 226.774,261.239 226.774 C 261.090 226.774,260.968 226.992,260.968 227.258 C 260.968 227.524,260.857 227.742,260.722 227.742 C 260.475 227.742,259.893 228.698,259.493 229.758 C 259.375 230.069,259.156 230.323,259.005 230.323 C 258.854 230.323,258.823 230.564,258.936 230.859 C 259.060 231.184,259.012 231.316,258.813 231.193 C 258.632 231.081,258.295 231.343,258.065 231.774 C 257.834 232.206,257.499 232.469,257.321 232.359 C 257.137 232.245,257.097 232.320,257.229 232.533 C 257.356 232.739,257.254 232.987,257.002 233.084 C 256.735 233.186,256.581 233.600,256.634 234.078 C 256.762 235.242,257.031 235.375,257.277 234.395 C 257.393 233.932,257.618 233.633,257.776 233.731 C 257.935 233.829,258.065 233.749,258.065 233.553 C 258.065 233.358,258.427 232.806,258.871 232.328 C 259.315 231.850,259.677 231.194,259.677 230.871 C 259.677 230.549,259.806 230.364,259.963 230.461 C 260.121 230.558,260.329 230.335,260.425 229.964 C 260.522 229.593,260.757 229.386,260.946 229.503 C 261.158 229.634,261.290 229.377,261.290 228.836 C 261.290 228.353,261.385 228.052,261.500 228.167 C 261.616 228.283,261.902 228.125,262.135 227.818 C 262.527 227.302,262.561 227.315,262.570 227.984 C 262.576 228.383,262.463 228.710,262.318 228.710 C 262.174 228.710,261.859 229.212,261.618 229.825 C 261.377 230.439,260.987 231.015,260.752 231.105 C 260.516 231.196,260.323 231.492,260.323 231.764 C 260.323 232.036,260.187 232.258,260.022 232.258 C 259.856 232.258,259.637 232.523,259.534 232.846 C 259.431 233.170,259.095 233.722,258.787 234.072 C 257.379 235.673,257.419 234.728,257.419 265.982 L 257.419 295.844 259.274 294.052 C 260.294 293.067,262.435 291.020,264.032 289.505 C 265.629 287.990,267.625 286.083,268.468 285.269 C 271.191 282.638,270.092 284.305,267.097 287.349 C 265.500 288.972,264.194 290.459,264.194 290.653 C 264.194 290.847,264.048 290.916,263.871 290.806 C 263.694 290.697,263.548 290.833,263.548 291.110 C 263.548 291.387,263.331 291.613,263.065 291.613 C 262.798 291.613,262.581 291.839,262.581 292.116 C 262.581 292.392,262.435 292.529,262.258 292.419 C 262.081 292.310,261.935 292.446,261.935 292.723 C 261.935 292.999,261.718 293.226,261.452 293.226 C 261.185 293.226,260.968 293.444,260.968 293.710 C 260.968 293.976,260.859 294.157,260.726 294.113 C 260.472 294.028,260.323 294.297,260.323 294.839 C 260.323 295.426,261.167 295.173,261.935 294.355 C 262.352 293.911,262.590 293.548,262.465 293.548 C 262.339 293.548,262.745 293.040,263.366 292.419 C 263.987 291.798,264.645 291.290,264.828 291.290 C 265.011 291.290,265.161 291.154,265.161 290.988 C 265.161 290.616,267.020 288.548,267.354 288.548 C 267.487 288.548,267.955 288.200,268.395 287.775 C 268.834 287.350,269.014 287.103,268.794 287.227 C 268.523 287.380,268.458 287.287,268.592 286.939 C 268.700 286.656,268.951 286.478,269.148 286.544 C 269.346 286.610,269.756 286.108,270.061 285.429 C 270.600 284.224,271.261 283.787,271.319 284.597 C 271.335 284.819,271.486 284.523,271.654 283.940 C 271.822 283.357,272.098 282.966,272.267 283.070 C 272.436 283.174,272.487 283.035,272.381 282.759 C 272.260 282.444,272.368 282.258,272.670 282.258 C 273.434 282.258,274.237 280.828,273.769 280.301 C 273.468 279.962,273.511 279.964,273.968 280.311 C 274.480 280.699,274.570 280.669,274.730 280.057 C 274.830 279.675,275.024 279.431,275.161 279.516 C 275.298 279.601,275.494 279.352,275.596 278.962 C 275.698 278.573,275.876 278.350,275.993 278.466 C 276.253 278.726,276.892 278.114,277.193 277.318 C 277.315 276.997,277.561 276.824,277.740 276.934 C 277.918 277.045,278.065 276.965,278.065 276.758 C 278.065 276.551,279.153 275.282,280.484 273.938 C 281.815 272.594,282.903 271.343,282.903 271.156 C 282.903 270.970,282.257 271.468,281.467 272.264 C 280.677 273.059,278.995 274.653,277.729 275.806 C 276.463 276.960,275.004 278.298,274.488 278.779 L 273.548 279.656 273.548 200.573 C 273.548 123.571,273.564 121.508,274.146 122.117 C 274.475 122.461,275.366 123.250,276.126 123.871 C 276.886 124.492,277.712 125.199,277.963 125.442 C 279.254 126.694,278.534 125.291,277.128 123.816 C 276.227 122.870,275.471 121.915,275.447 121.694 C 275.423 121.472,275.381 121.109,275.354 120.887 C 275.327 120.665,274.967 120.521,274.553 120.567 C 273.986 120.630,273.848 120.526,273.993 120.147 C 274.100 119.869,274.049 119.729,273.879 119.833 C 273.711 119.938,273.435 119.546,273.267 118.963 C 273.099 118.380,272.948 118.085,272.932 118.306 C 272.916 118.528,272.763 118.710,272.591 118.710 C 272.419 118.710,272.354 118.513,272.446 118.274 C 272.538 118.033,272.245 117.596,271.790 117.298 C 271.338 117.002,270.968 116.536,270.968 116.264 C 270.968 115.991,270.839 115.848,270.682 115.945 C 270.524 116.042,270.216 115.906,269.997 115.642 C 269.778 115.377,269.699 115.161,269.822 115.161 C 269.945 115.161,269.828 114.944,269.562 114.677 C 269.296 114.411,268.923 114.194,268.733 114.194 C 268.543 114.194,268.387 114.016,268.387 113.800 C 268.387 113.354,262.229 107.292,261.855 107.369 C 261.722 107.397,261.613 107.193,261.613 106.916 C 261.613 106.640,261.484 106.493,261.327 106.590 C 261.170 106.687,260.965 106.478,260.873 106.124 C 260.753 105.667,260.541 105.544,260.138 105.699 C 259.806 105.826,259.651 105.787,259.765 105.604 C 260.021 105.189,259.486 104.355,258.963 104.355 C 258.735 104.355,258.542 104.137,258.534 103.871 C 258.526 103.605,258.333 103.427,258.107 103.476 C 257.880 103.524,257.780 103.426,257.885 103.256 C 258.099 102.910,257.611 102.496,257.325 102.782 M265.409 112.258 C 265.631 112.613,265.732 112.903,265.634 112.903 C 265.537 112.903,265.145 112.613,264.764 112.258 C 264.271 111.799,264.206 111.613,264.539 111.613 C 264.796 111.613,265.187 111.903,265.409 112.258 M128.762 118.387 C 127.135 119.984,125.659 121.290,125.482 121.290 C 125.306 121.290,125.161 121.517,125.161 121.793 C 125.161 122.070,125.016 122.206,124.839 122.097 C 124.661 121.987,124.516 122.124,124.516 122.400 C 124.516 122.677,124.298 122.903,124.032 122.903 C 123.766 122.903,123.548 123.130,123.548 123.406 C 123.548 123.683,123.403 123.819,123.226 123.710 C 123.048 123.600,122.903 123.752,122.903 124.048 C 122.903 124.393,122.730 124.519,122.419 124.399 C 122.087 124.272,121.935 124.419,121.935 124.868 C 121.935 125.281,121.798 125.437,121.562 125.291 C 121.305 125.132,121.247 125.283,121.375 125.774 C 121.529 126.362,121.481 126.421,121.107 126.111 C 120.742 125.808,120.591 125.885,120.346 126.495 C 120.178 126.915,120.032 127.131,120.020 126.977 C 120.009 126.822,119.771 126.885,119.492 127.117 C 119.070 127.467,118.933 127.460,118.690 127.076 C 118.475 126.736,118.389 126.869,118.367 127.581 C 118.350 128.113,118.263 128.367,118.173 128.145 C 118.084 127.923,117.882 127.742,117.725 127.742 C 117.568 127.742,117.525 127.964,117.629 128.235 C 117.829 128.756,116.558 130.104,116.122 129.834 C 115.986 129.750,115.788 130.028,115.682 130.451 C 115.576 130.873,115.267 131.304,114.995 131.409 C 114.585 131.566,114.560 131.477,114.849 130.880 C 115.184 130.188,115.178 130.185,114.695 130.787 C 114.419 131.132,114.194 131.531,114.194 131.675 C 114.194 131.818,114.012 131.899,113.790 131.855 C 113.569 131.810,113.418 131.938,113.455 132.139 C 113.492 132.340,113.213 132.775,112.835 133.107 C 112.457 133.438,112.253 133.528,112.383 133.306 C 112.941 132.352,112.246 133.008,111.612 134.034 C 111.227 134.656,110.803 135.098,110.670 135.015 C 110.536 134.933,110.004 135.436,109.488 136.135 C 108.971 136.833,108.438 137.408,108.304 137.412 C 107.851 137.426,106.129 139.135,106.129 139.569 C 106.129 139.806,105.948 139.964,105.726 139.919 C 105.504 139.875,105.359 140.020,105.403 140.242 C 105.448 140.464,105.328 140.645,105.138 140.645 C 104.747 140.645,103.710 141.604,103.710 141.966 C 103.710 142.097,103.589 142.325,103.441 142.473 C 103.293 142.621,103.065 142.742,102.934 142.742 C 102.535 142.742,101.630 143.781,101.843 143.994 C 101.953 144.104,101.886 144.194,101.694 144.194 C 101.269 144.194,99.032 146.325,99.032 146.731 C 99.032 146.891,98.752 147.095,98.410 147.184 C 98.015 147.288,97.830 147.566,97.902 147.948 C 97.964 148.278,98.027 148.621,98.041 148.710 C 98.056 148.798,98.568 148.327,99.179 147.661 C 99.790 146.996,100.442 146.452,100.629 146.452 C 100.815 146.452,100.968 146.234,100.968 145.968 C 100.968 145.702,101.194 145.484,101.471 145.484 C 101.747 145.484,101.884 145.339,101.774 145.161 C 101.665 144.984,101.801 144.839,102.078 144.839 C 102.354 144.839,102.581 144.621,102.581 144.355 C 102.581 144.089,102.736 143.871,102.926 143.871 C 103.116 143.871,103.479 143.664,103.733 143.410 C 103.986 143.157,104.194 142.794,104.194 142.604 C 104.194 142.414,104.349 142.258,104.539 142.258 C 104.729 142.258,105.092 142.051,105.346 141.797 C 105.599 141.544,105.806 141.181,105.806 140.991 C 105.806 140.801,105.962 140.645,106.152 140.645 C 106.342 140.645,106.705 140.438,106.959 140.184 C 107.212 139.931,107.419 139.568,107.419 139.378 C 107.419 139.188,107.575 139.032,107.765 139.032 C 108.212 139.032,109.032 138.212,109.032 137.765 C 109.032 137.575,109.143 137.456,109.279 137.500 C 109.414 137.544,110.378 136.742,111.420 135.717 C 112.463 134.692,113.393 133.931,113.489 134.027 C 113.584 134.122,112.844 135.033,111.843 136.052 C 109.507 138.428,103.796 144.348,100.484 147.825 L 97.903 150.534 98.065 200.561 L 98.226 250.587 99.893 252.471 C 100.810 253.507,103.447 256.314,105.754 258.710 C 112.257 265.464,110.596 264.279,102.790 256.596 C 100.588 254.428,99.826 253.986,99.547 254.715 C 99.442 254.987,99.501 255.109,99.683 254.996 C 99.860 254.887,100.101 255.061,100.218 255.383 C 100.430 255.964,105.483 261.031,106.731 261.914 C 107.091 262.168,107.322 262.478,107.244 262.603 C 107.167 262.728,107.320 263.010,107.584 263.229 C 107.848 263.448,108.075 263.501,108.087 263.346 C 108.100 263.191,108.214 263.329,108.342 263.653 C 108.469 263.977,108.663 264.194,108.772 264.137 C 108.962 264.036,109.611 264.686,111.855 267.223 C 112.431 267.875,112.903 268.314,112.903 268.197 C 112.903 268.081,113.119 268.165,113.384 268.384 C 113.648 268.603,113.778 268.921,113.674 269.091 C 113.569 269.260,113.788 269.478,114.161 269.575 C 114.534 269.673,114.839 269.889,114.839 270.057 C 114.839 270.224,114.984 270.271,115.161 270.161 C 115.339 270.052,115.484 270.124,115.484 270.323 C 115.484 270.521,115.627 270.595,115.803 270.486 C 115.978 270.378,116.044 270.491,115.949 270.738 C 115.771 271.202,116.425 271.923,117.161 272.074 C 118.286 272.306,118.721 272.681,118.537 273.262 C 118.386 273.737,118.465 273.821,118.906 273.652 C 119.343 273.484,119.419 273.560,119.252 273.997 C 119.077 274.453,119.163 274.518,119.711 274.344 C 120.294 274.159,120.360 274.233,120.196 274.888 C 120.092 275.304,120.089 275.464,120.191 275.242 C 120.463 274.649,121.290 274.751,121.290 275.376 C 121.290 275.672,121.376 275.828,121.480 275.724 C 121.585 275.619,122.838 276.678,124.264 278.076 C 127.445 281.193,128.724 282.361,129.355 282.724 C 129.960 283.073,129.064 282.081,121.956 274.537 L 120.000 272.462 120.052 235.666 C 120.082 214.844,120.218 199.851,120.367 201.129 C 120.511 202.371,120.775 204.694,120.955 206.290 C 121.615 212.175,121.818 213.348,122.195 213.474 C 122.407 213.544,122.585 214.134,122.591 214.785 C 122.597 215.435,122.814 216.250,123.075 216.594 C 123.335 216.938,123.548 217.509,123.548 217.861 C 123.548 218.479,123.996 220.104,124.536 221.452 C 124.730 221.935,124.801 221.759,124.817 220.745 C 124.829 220.001,124.694 219.303,124.516 219.194 C 124.339 219.084,124.194 218.560,124.194 218.029 C 124.194 217.499,124.001 216.673,123.766 216.194 C 123.531 215.715,123.308 214.817,123.271 214.199 C 123.234 213.581,123.064 212.935,122.892 212.763 C 122.721 212.592,122.581 211.639,122.581 210.645 C 122.581 209.652,122.454 208.701,122.298 208.532 C 121.598 207.772,121.556 202.348,122.249 202.167 C 122.609 202.073,122.903 201.808,122.903 201.579 C 122.903 201.254,122.817 201.247,122.516 201.548 C 121.862 202.203,121.681 201.994,121.524 200.403 C 121.441 199.560,121.269 198.508,121.143 198.065 C 120.970 197.463,120.996 197.378,121.245 197.733 C 121.428 197.994,121.682 198.103,121.808 197.977 C 121.935 197.850,121.780 197.460,121.464 197.111 C 120.739 196.310,121.026 195.185,121.793 195.822 C 122.065 196.048,122.215 196.422,122.126 196.654 C 122.037 196.886,122.072 197.143,122.205 197.225 C 122.338 197.308,122.481 196.921,122.524 196.366 C 122.566 195.811,122.501 195.456,122.378 195.579 C 121.747 196.210,121.461 195.052,121.613 192.473 C 121.777 189.678,122.066 188.844,122.581 189.677 C 122.946 190.269,123.113 190.081,123.299 188.871 C 123.381 188.339,123.386 188.095,123.309 188.330 C 123.232 188.565,122.957 188.675,122.697 188.576 C 122.432 188.474,122.311 188.535,122.422 188.713 C 122.530 188.889,122.465 189.032,122.277 189.032 C 121.841 189.032,121.823 185.914,122.258 185.645 C 122.435 185.536,122.581 184.612,122.581 183.594 C 122.581 182.575,122.720 181.603,122.890 181.433 C 123.060 181.263,123.280 180.477,123.379 179.685 C 123.479 178.894,123.703 178.104,123.877 177.930 C 124.051 177.755,124.194 177.223,124.194 176.747 C 124.194 176.270,124.395 175.491,124.642 175.016 C 125.103 174.127,124.989 172.772,124.479 173.087 C 124.322 173.184,124.194 173.691,124.194 174.213 C 124.194 174.734,124.048 175.161,123.871 175.161 C 123.694 175.161,123.544 175.633,123.538 176.210 C 123.532 176.786,123.315 177.540,123.054 177.884 C 122.794 178.229,122.581 178.979,122.581 179.551 C 122.581 180.123,122.405 180.650,122.190 180.722 C 121.783 180.857,121.368 183.518,121.084 187.823 C 120.993 189.198,120.791 190.323,120.634 190.323 C 120.478 190.323,120.301 191.448,120.241 192.823 C 120.182 194.198,120.067 180.321,119.986 161.985 L 119.839 128.648 121.774 126.608 C 122.839 125.486,125.234 122.947,127.097 120.966 C 128.960 118.984,130.919 116.941,131.452 116.425 C 131.984 115.909,132.262 115.486,132.070 115.485 C 131.879 115.485,130.390 116.790,128.762 118.387 M121.289 124.034 C 120.873 124.476,120.608 124.839,120.701 124.839 C 121.021 124.839,122.361 123.544,122.204 123.386 C 122.117 123.299,121.705 123.591,121.289 124.034 M255.484 151.893 C 255.484 152.073,255.629 152.310,255.806 152.419 C 255.984 152.529,256.131 152.429,256.134 152.196 C 256.138 151.886,256.230 151.902,256.481 152.258 C 256.785 152.688,256.809 152.688,256.691 152.258 C 256.542 151.710,255.484 151.390,255.484 151.893 M90.696 154.839 C 90.303 155.371,90.130 155.806,90.313 155.806 C 90.496 155.806,90.645 155.653,90.645 155.465 C 90.645 155.277,90.813 155.227,91.018 155.353 C 91.235 155.488,91.303 155.443,91.181 155.245 C 91.066 155.059,91.188 154.823,91.453 154.721 C 91.719 154.620,91.935 154.387,91.935 154.204 C 91.935 153.595,91.420 153.859,90.696 154.839 M262.742 159.785 C 262.742 160.626,262.109 160.573,261.989 159.722 C 261.915 159.200,262.017 159.006,262.312 159.104 C 262.548 159.183,262.742 159.489,262.742 159.785 M263.548 161.271 C 263.548 161.616,263.403 161.987,263.226 162.097 C 263.043 162.210,262.903 161.939,262.903 161.471 C 262.903 161.017,263.048 160.645,263.226 160.645 C 263.403 160.645,263.548 160.927,263.548 161.271 M264.321 162.771 C 264.558 163.387,264.268 163.955,263.849 163.696 C 263.465 163.459,263.455 162.258,263.836 162.258 C 263.995 162.258,264.213 162.489,264.321 162.771 M128.558 164.288 C 128.420 164.606,128.398 164.957,128.509 165.068 C 128.836 165.395,129.100 164.935,128.949 164.299 C 128.816 163.736,128.798 163.735,128.558 164.288 M265.161 165.199 C 265.161 165.554,265.016 165.755,264.839 165.645 C 264.661 165.536,264.516 165.155,264.516 164.801 C 264.516 164.446,264.661 164.245,264.839 164.355 C 265.016 164.464,265.161 164.845,265.161 165.199 M127.536 165.969 C 127.425 166.258,127.479 166.640,127.656 166.817 C 127.870 167.032,128.036 166.917,128.152 166.473 C 128.363 165.668,127.821 165.225,127.536 165.969 M265.784 167.177 C 265.765 168.031,265.714 168.106,265.506 167.581 C 265.365 167.226,265.319 166.754,265.402 166.532 C 265.661 165.840,265.807 166.087,265.784 167.177 M126.774 167.922 C 126.774 168.390,126.914 168.661,127.097 168.548 C 127.274 168.439,127.419 168.067,127.419 167.723 C 127.419 167.379,127.274 167.097,127.097 167.097 C 126.919 167.097,126.774 167.468,126.774 167.922 M125.945 169.493 C 125.824 169.975,125.870 170.515,126.047 170.692 C 126.262 170.907,126.443 170.723,126.590 170.138 C 126.711 169.656,126.665 169.116,126.487 168.939 C 126.272 168.724,126.091 168.909,125.945 169.493 M266.774 169.696 C 266.774 170.041,266.629 170.323,266.452 170.323 C 266.274 170.323,266.129 169.951,266.129 169.497 C 266.129 169.029,266.269 168.758,266.452 168.871 C 266.629 168.981,266.774 169.352,266.774 169.696 M125.161 171.755 C 125.161 172.188,125.306 172.632,125.484 172.742 C 125.672 172.858,125.806 172.530,125.806 171.955 C 125.806 171.412,125.661 170.968,125.484 170.968 C 125.306 170.968,125.161 171.322,125.161 171.755 M267.319 172.823 C 267.238 173.133,267.172 172.879,267.172 172.258 C 267.172 171.637,267.238 171.383,267.319 171.694 C 267.400 172.004,267.400 172.512,267.319 172.823 M268.387 175.342 C 268.387 175.775,268.242 176.129,268.065 176.129 C 267.887 176.129,267.742 175.685,267.742 175.142 C 267.742 174.567,267.876 174.239,268.065 174.355 C 268.242 174.464,268.387 174.909,268.387 175.342 M268.938 179.432 C 268.861 179.833,268.795 179.581,268.791 178.871 C 268.787 178.161,268.851 177.833,268.931 178.141 C 269.012 178.450,269.015 179.030,268.938 179.432 M269.977 183.629 C 269.990 183.762,269.855 183.871,269.677 183.871 C 269.500 183.871,269.365 183.472,269.378 182.984 C 269.399 182.156,269.889 182.683,269.977 183.629 M270.563 198.468 C 270.506 200.286,270.459 198.798,270.459 195.161 C 270.459 191.524,270.506 190.036,270.563 191.855 C 270.621 193.673,270.621 196.649,270.563 198.468 M122.399 192.840 C 122.096 193.050,122.074 193.257,122.245 194.274 C 122.283 194.496,122.441 194.249,122.598 193.726 C 122.913 192.670,122.877 192.509,122.399 192.840 M268.938 211.367 C 268.861 211.768,268.795 211.516,268.791 210.806 C 268.787 210.097,268.851 209.768,268.931 210.077 C 269.012 210.385,269.015 210.966,268.938 211.367 M268.096 214.748 C 267.803 215.252,267.760 215.220,267.752 214.489 C 267.746 214.031,267.851 213.546,267.984 213.412 C 268.371 213.021,268.463 214.117,268.096 214.748 M266.774 219.336 C 266.774 219.680,266.629 220.052,266.452 220.161 C 266.269 220.274,266.129 220.003,266.129 219.535 C 266.129 219.081,266.274 218.710,266.452 218.710 C 266.629 218.710,266.774 218.991,266.774 219.336 M265.806 221.839 C 265.806 222.438,265.702 222.606,265.473 222.377 C 265.290 222.193,265.233 221.801,265.347 221.506 C 265.645 220.727,265.806 220.844,265.806 221.839 M125.161 222.497 C 125.161 223.004,125.294 223.557,125.457 223.726 C 125.619 223.894,125.800 224.365,125.860 224.771 C 125.919 225.177,126.113 225.467,126.290 225.416 C 126.690 225.300,126.549 224.072,126.120 223.925 C 125.947 223.866,125.806 223.402,125.806 222.895 C 125.806 222.388,125.661 221.884,125.484 221.774 C 125.298 221.659,125.161 221.964,125.161 222.497 M265.161 223.368 C 265.161 223.624,265.016 223.923,264.839 224.032 C 264.661 224.142,264.516 223.933,264.516 223.567 C 264.516 223.202,264.661 222.903,264.839 222.903 C 265.016 222.903,265.161 223.112,265.161 223.368 M264.194 225.065 C 264.194 225.664,264.090 225.831,263.860 225.602 C 263.677 225.419,263.620 225.027,263.734 224.731 C 264.032 223.953,264.194 224.069,264.194 225.065 M126.774 226.755 C 126.774 227.298,126.919 227.742,127.097 227.742 C 127.274 227.742,127.419 227.388,127.419 226.955 C 127.419 226.521,127.274 226.077,127.097 225.968 C 126.909 225.851,126.774 226.179,126.774 226.755 M263.548 226.452 C 263.548 226.806,263.403 227.097,263.226 227.097 C 263.048 227.097,262.903 226.806,262.903 226.452 C 262.903 226.097,263.048 225.806,263.226 225.806 C 263.403 225.806,263.548 226.097,263.548 226.452 M127.544 227.884 C 127.446 228.139,127.518 228.611,127.705 228.932 C 127.994 229.428,128.046 229.359,128.055 228.468 C 128.065 227.362,127.842 227.107,127.544 227.884 M128.387 230.161 C 128.387 230.427,128.532 230.645,128.710 230.645 C 128.887 230.645,129.032 230.427,129.032 230.161 C 129.032 229.895,128.887 229.677,128.710 229.677 C 128.532 229.677,128.387 229.895,128.387 230.161 M90.968 246.437 C 90.968 246.744,92.871 248.530,93.020 248.364 C 93.088 248.288,92.655 247.775,92.056 247.223 C 91.457 246.671,90.968 246.318,90.968 246.437 M94.029 248.715 C 93.918 248.895,93.669 248.945,93.476 248.826 C 93.266 248.696,93.219 248.760,93.360 248.988 C 93.488 249.195,93.718 249.288,93.871 249.194 C 94.024 249.099,94.240 249.169,94.352 249.350 C 94.463 249.530,94.727 249.673,94.938 249.668 C 95.150 249.662,95.065 249.508,94.751 249.325 C 94.437 249.142,94.264 248.856,94.367 248.690 C 94.470 248.523,94.482 248.387,94.393 248.387 C 94.304 248.387,94.140 248.535,94.029 248.715 M95.724 250.242 C 95.658 250.375,95.613 250.702,95.624 250.968 C 95.650 251.555,96.525 251.618,96.642 251.040 C 96.688 250.814,96.652 250.778,96.562 250.960 C 96.273 251.542,95.839 251.313,95.968 250.645 C 96.091 250.004,95.955 249.779,95.724 250.242 M97.155 252.803 C 97.764 253.452,97.909 253.491,98.145 253.070 C 98.509 252.420,98.093 251.695,97.707 252.304 C 97.554 252.545,97.427 252.585,97.424 252.392 C 97.422 252.200,97.199 252.043,96.930 252.043 C 96.556 252.043,96.609 252.222,97.155 252.803 M98.387 253.199 C 98.387 253.758,98.779 254.516,99.067 254.516 C 99.225 254.516,99.355 254.153,99.355 253.710 C 99.355 253.208,99.172 252.903,98.871 252.903 C 98.605 252.903,98.387 253.037,98.387 253.199 M259.445 295.473 C 259.583 295.997,259.511 296.134,259.170 296.003 C 258.891 295.896,258.710 296.027,258.710 296.335 C 258.710 296.652,258.529 296.774,258.230 296.659 C 257.724 296.465,257.694 297.479,258.191 297.976 C 258.328 298.113,258.392 298.015,258.333 297.757 C 258.274 297.499,258.371 297.279,258.548 297.268 C 259.517 297.209,260.627 295.497,259.936 295.127 C 259.331 294.803,259.280 294.839,259.445 295.473 M256.910 298.187 C 256.718 298.395,256.299 298.965,255.979 299.454 C 255.659 299.943,255.321 300.267,255.228 300.174 C 255.015 299.961,254.194 300.627,254.194 301.012 C 254.194 301.170,254.774 300.915,255.484 300.446 C 256.194 299.976,256.774 299.446,256.774 299.267 C 256.774 299.088,257.014 298.767,257.307 298.553 C 257.600 298.338,257.709 298.083,257.549 297.986 C 257.389 297.889,257.101 297.980,256.910 298.187 M252.121 301.828 C 252.030 302.065,252.079 302.258,252.229 302.258 C 252.379 302.258,252.662 302.065,252.859 301.828 C 253.128 301.503,253.102 301.398,252.751 301.398 C 252.495 301.398,252.212 301.591,252.121 301.828 " stroke="none" fill="#04fcb4" fill-rule="evenodd"></path><path id="path4" d="M147.634 100.215 C 147.212 100.637,147.430 100.905,148.061 100.740 C 148.414 100.647,148.623 100.443,148.526 100.286 C 148.316 99.947,147.933 99.916,147.634 100.215 M145.484 101.384 C 145.484 101.773,144.629 102.581,144.217 102.581 C 144.026 102.581,143.871 102.798,143.871 103.065 C 143.871 103.331,143.690 103.512,143.468 103.468 C 143.246 103.423,143.101 103.569,143.145 103.790 C 143.190 104.012,143.008 104.194,142.742 104.194 C 142.476 104.194,142.258 104.420,142.258 104.696 C 142.258 104.973,142.112 105.109,141.933 104.999 C 141.755 104.888,141.522 105.024,141.416 105.300 C 141.309 105.577,141.093 105.722,140.934 105.624 C 140.775 105.526,140.645 105.753,140.645 106.129 C 140.645 106.505,140.516 106.733,140.359 106.635 C 140.202 106.538,139.892 106.677,139.671 106.943 C 139.383 107.290,139.154 107.331,138.862 107.089 C 138.559 106.838,138.467 106.899,138.502 107.327 C 138.528 107.651,138.361 107.864,138.121 107.815 C 137.886 107.766,137.773 107.854,137.869 108.010 C 138.106 108.393,136.580 109.795,136.189 109.553 C 136.019 109.448,135.899 109.614,135.924 109.923 C 135.948 110.233,135.777 110.444,135.541 110.395 C 135.306 110.346,135.201 110.449,135.309 110.623 C 135.417 110.798,135.082 111.159,134.566 111.426 C 134.049 111.693,133.537 112.144,133.428 112.428 C 133.317 112.718,133.067 112.843,132.856 112.713 C 132.623 112.569,132.568 112.622,132.711 112.853 C 132.838 113.058,132.811 113.226,132.651 113.226 C 132.492 113.226,132.196 113.589,131.994 114.032 C 131.792 114.476,131.459 114.839,131.254 114.839 C 131.048 114.839,130.552 115.193,130.151 115.625 C 129.751 116.058,129.335 116.324,129.227 116.217 C 129.120 116.109,129.032 116.175,129.032 116.363 C 129.032 116.709,121.961 123.869,119.865 125.645 C 119.237 126.177,118.720 126.794,118.717 127.016 C 118.708 127.501,119.236 127.550,119.519 127.092 C 119.631 126.911,119.841 126.837,119.986 126.927 C 120.131 127.016,120.329 126.786,120.425 126.416 C 120.522 126.045,120.757 125.837,120.946 125.954 C 121.136 126.072,121.290 125.933,121.290 125.645 C 121.290 125.358,121.435 125.213,121.613 125.323 C 121.790 125.432,121.935 125.228,121.935 124.868 C 121.935 124.419,122.087 124.272,122.419 124.399 C 122.730 124.519,122.903 124.393,122.903 124.048 C 122.903 123.752,123.048 123.600,123.226 123.710 C 123.403 123.819,123.548 123.683,123.548 123.406 C 123.548 123.130,123.766 122.903,124.032 122.903 C 124.298 122.903,124.516 122.677,124.516 122.400 C 124.516 122.124,124.661 121.987,124.839 122.097 C 125.016 122.206,125.161 122.070,125.161 121.793 C 125.161 121.517,125.306 121.290,125.482 121.290 C 125.659 121.290,127.135 119.984,128.762 118.387 C 130.390 116.790,131.879 115.485,132.070 115.485 C 132.262 115.486,131.984 115.909,131.452 116.425 C 130.919 116.941,128.960 118.984,127.097 120.966 C 125.234 122.947,122.839 125.486,121.774 126.608 L 119.839 128.648 119.986 161.985 C 120.067 180.321,120.182 194.198,120.241 192.823 C 120.301 191.448,120.478 190.323,120.634 190.323 C 120.791 190.323,120.993 189.198,121.084 187.823 C 121.368 183.518,121.783 180.857,122.190 180.722 C 122.405 180.650,122.581 180.123,122.581 179.551 C 122.581 178.979,122.794 178.229,123.054 177.884 C 123.315 177.540,123.532 176.786,123.538 176.210 C 123.544 175.633,123.694 175.161,123.871 175.161 C 124.048 175.161,124.194 174.734,124.194 174.213 C 124.194 173.691,124.322 173.184,124.479 173.087 C 124.989 172.772,125.103 174.127,124.642 175.016 C 124.395 175.491,124.194 176.270,124.194 176.747 C 124.194 177.223,124.051 177.755,123.877 177.930 C 123.703 178.104,123.479 178.894,123.379 179.685 C 123.280 180.477,123.060 181.263,122.890 181.433 C 122.720 181.603,122.581 182.575,122.581 183.594 C 122.581 184.612,122.435 185.536,122.258 185.645 C 121.823 185.914,121.841 189.032,122.277 189.032 C 122.465 189.032,122.520 188.873,122.399 188.677 C 122.244 188.426,122.356 188.417,122.784 188.646 C 123.326 188.936,123.391 188.833,123.425 187.629 C 123.487 185.421,123.671 184.194,123.940 184.194 C 124.079 184.194,124.194 183.476,124.194 182.600 C 124.194 181.723,124.330 180.921,124.497 180.818 C 124.665 180.715,124.890 179.944,124.998 179.105 C 125.106 178.267,125.332 177.329,125.500 177.021 C 125.669 176.712,125.806 176.197,125.806 175.875 C 125.806 175.554,125.988 175.095,126.210 174.856 C 126.538 174.503,126.523 174.472,126.129 174.692 C 125.703 174.930,125.702 174.893,126.114 174.385 C 126.372 174.068,126.626 173.527,126.678 173.184 C 126.731 172.840,126.975 172.237,127.221 171.844 C 127.468 171.451,127.763 170.595,127.877 169.943 C 127.991 169.290,128.249 168.702,128.448 168.635 C 128.648 168.569,128.860 168.196,128.920 167.807 C 129.089 166.701,130.373 164.154,130.856 163.969 C 131.095 163.877,131.290 163.545,131.290 163.231 C 131.290 162.917,131.508 162.479,131.774 162.258 C 132.040 162.037,132.258 161.599,132.258 161.285 C 132.258 160.971,132.485 160.627,132.762 160.521 C 133.040 160.414,133.176 160.180,133.065 160.000 C 132.953 159.820,133.089 159.586,133.367 159.479 C 133.644 159.373,133.871 159.011,133.871 158.675 C 133.871 158.339,134.017 158.065,134.196 158.065 C 134.375 158.065,134.758 157.472,135.048 156.748 C 135.424 155.810,135.653 155.555,135.847 155.861 C 136.138 156.319,136.235 156.043,136.152 155.000 C 136.110 154.475,136.160 154.443,136.420 154.829 C 136.890 155.528,137.294 154.756,137.395 152.965 C 137.409 152.733,137.565 152.632,137.742 152.742 C 137.919 152.852,138.065 152.715,138.065 152.438 C 138.065 152.162,138.210 151.935,138.387 151.935 C 138.565 151.935,138.710 151.726,138.710 151.471 C 138.710 151.215,138.877 150.902,139.082 150.776 C 139.313 150.633,139.367 150.687,139.224 150.918 C 139.075 151.160,139.254 151.281,139.739 151.265 C 140.149 151.251,140.302 151.166,140.081 151.077 C 139.859 150.987,139.677 150.625,139.677 150.273 C 139.677 149.538,140.456 148.628,140.795 148.967 C 140.920 149.092,140.973 149.039,140.914 148.851 C 140.751 148.333,142.621 146.487,143.116 146.677 C 143.354 146.769,143.548 146.672,143.548 146.463 C 143.548 145.857,144.490 145.082,144.992 145.275 C 145.280 145.385,145.391 145.293,145.289 145.028 C 145.199 144.795,145.876 143.858,146.792 142.947 C 148.463 141.284,148.657 140.586,147.027 142.097 C 146.549 142.540,146.083 142.903,145.993 142.903 C 145.903 142.903,145.404 143.302,144.886 143.790 C 144.367 144.278,143.312 145.185,142.540 145.806 C 141.769 146.427,140.737 147.324,140.246 147.798 L 139.355 148.660 139.355 128.879 L 139.355 109.098 141.210 107.152 C 142.230 106.081,143.829 104.397,144.764 103.409 C 145.699 102.421,146.606 101.613,146.780 101.613 C 146.954 101.613,147.097 101.469,147.097 101.294 C 147.097 101.119,146.734 101.005,146.290 101.042 C 145.847 101.078,145.484 101.232,145.484 101.384 M262.581 107.632 C 262.581 107.808,262.980 108.304,263.468 108.734 L 264.355 109.516 263.548 108.548 C 263.105 108.016,262.706 107.520,262.661 107.446 C 262.617 107.372,262.581 107.456,262.581 107.632 M270.968 116.394 C 270.968 116.595,271.338 117.002,271.790 117.298 C 272.245 117.596,272.538 118.033,272.446 118.274 C 272.354 118.513,272.419 118.710,272.591 118.710 C 272.957 118.710,272.996 118.043,272.656 117.581 C 272.136 116.872,270.968 116.051,270.968 116.394 M273.226 118.622 C 273.226 119.302,273.617 119.996,273.901 119.820 C 274.058 119.723,274.093 119.886,273.980 120.182 C 273.809 120.627,273.907 120.677,274.545 120.475 C 275.263 120.247,275.283 120.272,274.836 120.822 C 274.556 121.167,274.523 121.313,274.759 121.172 C 275.017 121.016,275.271 121.198,275.462 121.674 C 275.627 122.084,276.437 123.121,277.263 123.979 C 278.568 125.335,279.188 126.630,277.963 125.442 C 277.712 125.199,276.886 124.492,276.126 123.871 C 275.366 123.250,274.475 122.461,274.146 122.117 C 273.564 121.508,273.548 123.571,273.548 200.573 L 273.548 279.656 274.488 278.779 C 275.004 278.298,276.463 276.960,277.729 275.806 C 278.995 274.653,280.677 273.059,281.467 272.264 C 282.257 271.468,282.903 270.970,282.903 271.156 C 282.903 271.343,281.815 272.594,280.484 273.938 C 279.153 275.282,278.065 276.551,278.065 276.758 C 278.065 276.965,277.918 277.045,277.740 276.934 C 277.561 276.824,277.315 276.997,277.193 277.318 C 276.892 278.114,276.253 278.726,275.993 278.466 C 275.876 278.350,275.698 278.573,275.596 278.962 C 275.494 279.352,275.298 279.601,275.161 279.516 C 275.024 279.431,274.833 279.665,274.736 280.036 C 274.636 280.417,274.406 280.615,274.207 280.492 C 274.014 280.373,273.889 280.394,273.932 280.541 C 274.064 281.000,273.222 282.258,272.782 282.258 C 272.377 282.258,271.458 283.824,271.713 284.079 C 271.914 284.280,279.355 276.935,279.355 276.536 C 279.355 276.336,279.645 276.080,280.000 275.968 C 280.355 275.855,280.645 275.552,280.645 275.294 C 280.645 275.036,281.004 274.662,281.441 274.462 C 281.879 274.262,282.161 273.975,282.068 273.824 C 281.974 273.672,282.114 273.548,282.379 273.548 C 282.643 273.548,282.953 273.256,283.066 272.899 C 283.179 272.541,283.429 272.346,283.621 272.465 C 283.822 272.588,283.878 272.531,283.754 272.330 C 283.635 272.138,283.688 271.887,283.871 271.774 C 284.054 271.661,284.108 271.397,283.990 271.187 C 283.842 270.924,283.909 270.929,284.206 271.205 C 284.725 271.686,285.806 270.882,285.806 270.015 C 285.806 269.273,286.436 268.724,287.027 268.951 C 287.407 269.097,287.480 268.978,287.340 268.442 C 287.239 268.057,287.289 267.742,287.450 267.742 C 287.610 267.742,287.742 267.524,287.742 267.258 C 287.742 266.992,287.887 266.774,288.065 266.774 C 288.242 266.774,288.387 266.556,288.387 266.290 C 288.387 266.024,288.605 265.806,288.871 265.806 C 289.137 265.806,289.355 265.580,289.355 265.304 C 289.355 265.027,289.483 264.880,289.641 264.977 C 289.798 265.075,290.006 264.851,290.103 264.480 C 290.200 264.109,290.434 263.902,290.623 264.019 C 290.813 264.136,290.974 264.042,290.981 263.809 C 290.989 263.577,291.713 262.661,292.591 261.774 C 294.633 259.712,294.691 259.102,292.661 261.041 C 289.119 264.425,288.296 265.161,288.053 265.161 C 287.911 265.161,287.722 265.343,287.633 265.565 C 287.544 265.786,287.470 236.573,287.470 200.645 C 287.470 164.718,287.544 135.505,287.634 135.728 C 287.724 135.951,287.905 136.067,288.036 135.985 C 288.167 135.904,288.747 136.339,289.325 136.951 C 290.375 138.064,290.968 138.350,290.968 137.742 C 290.968 137.565,290.825 137.419,290.651 137.419 C 290.477 137.419,290.245 137.061,290.135 136.624 C 290.025 136.186,289.841 135.840,289.726 135.855 C 289.056 135.943,288.757 135.717,288.574 134.987 C 288.461 134.536,288.254 134.238,288.113 134.325 C 287.973 134.411,287.921 134.054,287.998 133.531 C 288.130 132.634,287.885 132.395,286.992 132.550 C 286.846 132.576,286.824 132.438,286.944 132.244 C 287.067 132.045,286.868 131.815,286.484 131.715 C 286.111 131.617,285.806 131.369,285.806 131.163 C 285.806 130.706,284.650 129.677,284.136 129.677 C 283.931 129.677,283.851 129.589,283.959 129.482 C 284.215 129.226,283.461 128.410,283.145 128.601 C 283.012 128.682,282.903 128.529,282.903 128.261 C 282.903 127.994,282.395 127.387,281.774 126.914 C 281.153 126.440,280.645 125.828,280.645 125.553 C 280.645 125.278,280.551 125.148,280.435 125.264 C 280.199 125.500,278.710 124.005,278.710 123.532 C 278.710 123.363,278.502 123.226,278.248 123.226 C 277.993 123.226,277.696 122.943,277.586 122.597 C 277.476 122.251,277.140 121.889,276.838 121.793 C 276.537 121.696,276.000 121.181,275.645 120.648 C 275.290 120.115,274.897 119.679,274.771 119.678 C 274.644 119.678,274.245 119.360,273.884 118.971 C 273.522 118.583,273.226 118.426,273.226 118.622 M116.791 128.909 C 116.357 129.321,116.080 129.736,116.175 129.831 C 116.422 130.078,117.828 128.798,117.693 128.449 C 117.631 128.290,117.225 128.496,116.791 128.909 M115.048 130.651 C 114.581 131.442,114.568 131.573,114.972 131.418 C 115.240 131.315,115.551 130.943,115.662 130.591 C 115.984 129.578,115.663 129.609,115.048 130.651 M291.150 138.031 C 290.890 138.451,293.016 140.747,293.353 140.410 C 293.470 140.293,293.224 139.899,292.806 139.534 C 292.388 139.169,291.896 138.598,291.712 138.265 C 291.485 137.851,291.307 137.777,291.150 138.031 M128.899 165.079 C 128.547 165.431,128.305 164.871,128.558 164.288 C 128.798 163.735,128.816 163.736,128.949 164.299 C 129.026 164.624,129.004 164.975,128.899 165.079 M128.152 166.473 C 128.036 166.917,127.870 167.032,127.656 166.817 C 127.271 166.433,127.609 165.363,128.032 165.625 C 128.194 165.725,128.248 166.107,128.152 166.473 M127.419 167.723 C 127.419 168.067,127.274 168.439,127.097 168.548 C 126.914 168.661,126.774 168.390,126.774 167.922 C 126.774 167.468,126.919 167.097,127.097 167.097 C 127.274 167.097,127.419 167.379,127.419 167.723 M126.590 170.138 C 126.443 170.723,126.262 170.907,126.047 170.692 C 125.870 170.515,125.824 169.975,125.945 169.493 C 126.091 168.909,126.272 168.724,126.487 168.939 C 126.665 169.116,126.711 169.656,126.590 170.138 M125.806 171.955 C 125.806 172.530,125.672 172.858,125.484 172.742 C 125.306 172.632,125.161 172.188,125.161 171.755 C 125.161 171.322,125.306 170.968,125.484 170.968 C 125.661 170.968,125.806 171.412,125.806 171.955 M267.818 183.237 C 268.000 183.953,268.220 184.468,268.307 184.381 C 268.556 184.132,268.066 181.935,267.762 181.935 C 267.611 181.935,267.637 182.521,267.818 183.237 M121.810 189.919 C 121.525 190.875,121.498 195.036,121.773 195.483 C 122.144 196.083,122.913 194.968,122.871 193.890 L 122.839 193.065 122.581 193.871 C 122.342 194.616,122.263 194.546,122.126 193.468 C 122.098 193.246,122.225 192.961,122.409 192.834 C 122.592 192.708,122.754 192.490,122.770 192.350 C 122.785 192.211,122.908 191.806,123.043 191.452 C 123.503 190.238,123.541 189.967,123.220 190.165 C 123.043 190.274,122.812 190.137,122.705 189.859 C 122.448 189.190,122.020 189.219,121.810 189.919 M268.773 194.282 C 268.720 195.394,268.819 196.664,268.995 197.103 C 269.248 197.739,269.318 197.390,269.334 195.403 C 269.346 194.028,269.366 192.798,269.379 192.669 C 269.392 192.541,269.283 192.396,269.137 192.348 C 268.991 192.299,268.827 193.169,268.773 194.282 M121.102 195.922 C 120.975 196.253,121.121 196.732,121.464 197.111 C 121.780 197.460,121.935 197.850,121.808 197.977 C 121.682 198.103,121.428 197.994,121.245 197.733 C 120.996 197.378,120.970 197.463,121.143 198.065 C 121.269 198.508,121.441 199.560,121.524 200.403 C 121.680 201.987,121.862 202.202,122.505 201.560 C 122.791 201.274,122.756 201.093,122.359 200.802 C 121.945 200.499,121.924 200.368,122.259 200.161 C 122.555 199.978,122.603 200.026,122.419 200.323 C 122.247 200.602,122.284 200.667,122.531 200.515 C 123.022 200.211,123.006 199.272,122.500 198.727 C 122.174 198.375,122.183 198.342,122.550 198.551 C 122.821 198.706,122.925 198.683,122.809 198.495 C 122.702 198.322,122.539 197.765,122.447 197.258 C 122.214 195.971,121.395 195.158,121.102 195.922 M268.495 198.902 C 268.495 199.151,268.688 199.355,268.925 199.355 C 269.161 199.355,269.355 199.225,269.355 199.067 C 269.355 198.908,269.161 198.704,268.925 198.614 C 268.688 198.523,268.495 198.653,268.495 198.902 M120.052 235.666 L 120.000 272.462 121.956 274.537 C 129.064 282.081,129.960 283.073,129.355 282.724 C 128.724 282.361,127.445 281.193,124.264 278.076 C 122.838 276.678,121.585 275.619,121.480 275.724 C 121.376 275.828,121.290 275.672,121.290 275.376 C 121.290 275.081,121.073 274.839,120.806 274.839 C 120.540 274.839,120.323 275.063,120.323 275.336 C 120.323 275.882,134.968 290.645,135.510 290.645 C 135.694 290.645,135.764 290.775,135.666 290.934 C 135.452 291.281,136.386 291.691,136.803 291.434 C 136.965 291.334,137.097 291.551,137.097 291.916 C 137.097 292.311,137.307 292.581,137.615 292.581 C 137.912 292.581,138.064 292.763,137.970 293.007 C 137.735 293.618,138.840 294.257,139.313 293.783 C 139.584 293.513,139.677 293.524,139.677 293.825 C 139.677 294.049,139.824 294.141,140.002 294.031 C 140.491 293.729,140.773 294.780,140.343 295.298 C 140.056 295.643,140.067 295.806,140.388 295.991 C 140.618 296.124,140.699 296.114,140.567 295.968 C 140.436 295.823,140.487 295.513,140.681 295.279 C 140.959 294.944,141.636 295.452,143.872 297.669 C 146.445 300.221,148.065 301.254,148.065 300.343 C 148.065 300.154,147.872 300.000,147.636 300.000 C 147.235 300.000,143.083 295.956,140.516 293.065 L 139.370 291.774 139.362 269.266 L 139.355 246.759 140.528 247.815 C 141.173 248.396,142.158 249.306,142.717 249.839 C 143.275 250.371,144.271 251.169,144.929 251.613 C 145.586 252.056,146.126 252.528,146.127 252.661 C 146.128 252.794,146.285 252.903,146.475 252.903 C 146.665 252.903,147.023 253.085,147.270 253.306 C 148.295 254.226,148.696 254.516,148.938 254.515 C 149.079 254.514,148.649 254.013,147.984 253.402 C 147.319 252.791,146.774 252.130,146.774 251.933 C 146.774 251.736,146.646 251.654,146.490 251.751 C 146.003 252.051,141.935 248.465,141.935 247.736 C 141.935 247.541,141.823 247.451,141.685 247.536 C 141.547 247.621,141.197 247.278,140.907 246.773 C 140.399 245.887,140.404 245.859,141.040 245.982 C 141.403 246.052,141.596 246.004,141.468 245.877 C 141.341 245.749,141.140 245.643,141.022 245.640 C 140.903 245.638,140.603 245.506,140.353 245.348 C 140.052 245.158,139.973 245.179,140.117 245.412 C 140.236 245.604,140.165 245.866,139.958 245.993 C 139.697 246.155,139.633 245.967,139.747 245.371 C 139.837 244.901,139.777 244.516,139.614 244.516 C 139.450 244.516,139.426 244.335,139.559 244.113 C 139.744 243.805,139.680 243.808,139.289 244.124 C 138.873 244.462,138.781 244.462,138.794 244.124 C 138.837 243.081,138.683 242.559,138.387 242.742 C 138.097 242.921,137.925 242.498,138.026 241.855 C 138.047 241.722,137.956 241.630,137.823 241.651 C 136.801 241.812,136.442 241.588,136.764 240.987 C 137.116 240.330,136.725 239.793,136.152 240.147 C 135.988 240.249,135.758 240.003,135.643 239.601 C 135.255 238.254,134.489 236.774,134.178 236.774 C 134.009 236.774,133.907 236.593,133.952 236.371 C 133.996 236.149,133.851 236.004,133.629 236.048 C 133.407 236.093,133.226 235.907,133.226 235.635 C 133.226 235.363,133.024 235.064,132.778 234.969 C 132.531 234.874,132.394 234.548,132.474 234.244 C 132.601 233.757,132.365 233.357,130.974 231.707 C 130.793 231.493,130.645 231.188,130.645 231.029 C 130.645 230.871,130.282 230.059,129.839 229.225 C 129.395 228.390,129.032 227.417,129.032 227.061 C 129.032 226.684,128.888 226.503,128.688 226.626 C 128.499 226.743,128.383 226.643,128.430 226.403 C 128.569 225.706,127.656 223.564,127.311 223.777 C 127.138 223.883,127.098 223.807,127.221 223.608 C 127.345 223.408,127.211 222.792,126.925 222.238 C 126.638 221.684,126.482 221.153,126.576 221.058 C 126.671 220.963,126.537 220.476,126.277 219.975 C 126.018 219.474,125.806 218.634,125.806 218.107 C 125.806 217.581,125.667 217.102,125.497 217.043 C 125.326 216.984,125.108 216.309,125.013 215.544 C 124.918 214.779,124.709 213.908,124.551 213.609 C 124.392 213.309,124.210 212.339,124.147 211.452 C 124.084 210.565,123.918 209.754,123.778 209.651 C 123.638 209.547,123.470 208.113,123.406 206.463 C 123.325 204.406,123.152 203.377,122.854 203.188 C 122.615 203.037,122.577 202.911,122.769 202.908 C 122.961 202.905,123.118 202.679,123.118 202.405 C 123.118 202.109,122.934 201.978,122.662 202.083 C 122.411 202.179,122.067 202.258,121.898 202.258 C 121.518 202.258,121.891 208.090,122.298 208.532 C 122.454 208.701,122.581 209.652,122.581 210.645 C 122.581 211.639,122.721 212.592,122.892 212.763 C 123.064 212.935,123.234 213.581,123.271 214.199 C 123.308 214.817,123.531 215.715,123.766 216.194 C 124.001 216.673,124.194 217.499,124.194 218.029 C 124.194 218.560,124.339 219.084,124.516 219.194 C 124.694 219.303,124.829 220.001,124.817 220.745 C 124.801 221.759,124.730 221.935,124.536 221.452 C 123.996 220.104,123.548 218.479,123.548 217.861 C 123.548 217.509,123.335 216.938,123.075 216.594 C 122.814 216.250,122.597 215.435,122.591 214.785 C 122.585 214.134,122.407 213.544,122.195 213.474 C 121.818 213.348,121.615 212.175,120.955 206.290 C 120.775 204.694,120.511 202.371,120.367 201.129 C 120.218 199.851,120.082 214.844,120.052 235.666 M268.362 204.113 C 268.331 204.830,268.190 205.475,267.887 206.290 C 267.691 206.818,267.725 206.863,268.078 206.536 C 268.487 206.157,268.900 203.548,268.552 203.548 C 268.461 203.548,268.376 203.802,268.362 204.113 M267.490 208.383 C 267.475 208.917,267.585 209.355,267.735 209.355 C 267.885 209.355,267.967 208.987,267.918 208.538 C 267.787 207.348,267.522 207.252,267.490 208.383 M266.290 213.871 C 266.181 214.048,266.177 214.194,266.283 214.194 C 266.388 214.194,266.319 214.484,266.129 214.839 C 265.939 215.194,265.858 215.484,265.948 215.484 C 266.039 215.484,266.338 215.048,266.613 214.516 C 267.062 213.648,266.778 213.081,266.290 213.871 M125.806 222.895 C 125.806 223.402,125.947 223.866,126.120 223.925 C 126.549 224.072,126.690 225.300,126.290 225.416 C 126.113 225.467,125.919 225.177,125.860 224.771 C 125.800 224.365,125.619 223.894,125.457 223.726 C 125.052 223.306,125.077 221.522,125.484 221.774 C 125.661 221.884,125.806 222.388,125.806 222.895 M127.419 226.955 C 127.419 227.388,127.274 227.742,127.097 227.742 C 126.919 227.742,126.774 227.298,126.774 226.755 C 126.774 226.179,126.909 225.851,127.097 225.968 C 127.274 226.077,127.419 226.521,127.419 226.955 M128.055 228.468 C 128.046 229.359,127.994 229.428,127.705 228.932 C 127.518 228.611,127.446 228.139,127.544 227.884 C 127.842 227.107,128.065 227.362,128.055 228.468 M129.032 230.161 C 129.032 230.427,128.887 230.645,128.710 230.645 C 128.532 230.645,128.387 230.427,128.387 230.161 C 128.387 229.895,128.532 229.677,128.710 229.677 C 128.887 229.677,129.032 229.895,129.032 230.161 M106.309 262.087 C 107.131 262.708,107.600 262.715,106.982 262.097 C 106.715 261.831,106.314 261.613,106.090 261.613 C 105.862 261.613,105.958 261.821,106.309 262.087 M109.677 265.323 C 109.898 265.589,110.224 265.806,110.402 265.806 C 110.582 265.806,110.547 265.592,110.323 265.323 C 110.102 265.056,109.776 264.839,109.598 264.839 C 109.418 264.839,109.453 265.053,109.677 265.323 M116.136 271.705 C 117.768 273.288,118.288 273.632,118.509 273.273 C 118.791 272.815,118.120 272.208,117.161 272.055 C 116.443 271.940,115.769 271.208,115.949 270.738 C 116.044 270.491,115.978 270.378,115.803 270.486 C 115.627 270.595,115.484 270.521,115.484 270.323 C 115.484 270.124,115.339 270.052,115.161 270.161 C 114.984 270.271,114.839 270.207,114.839 270.019 C 114.839 269.831,114.660 269.677,114.443 269.677 C 114.225 269.677,114.987 270.590,116.136 271.705 M232.700 274.516 C 232.700 276.379,232.753 277.141,232.818 276.210 C 232.884 275.278,232.884 273.754,232.818 272.823 C 232.753 271.891,232.700 272.653,232.700 274.516 M118.710 273.961 C 118.710 274.694,119.914 275.528,120.136 274.949 C 120.423 274.201,120.372 274.134,119.679 274.354 C 119.186 274.511,119.081 274.441,119.230 274.053 C 119.337 273.776,119.263 273.548,119.067 273.548 C 118.870 273.548,118.710 273.734,118.710 273.961 M270.170 285.145 C 269.471 286.496,269.557 286.677,270.484 285.806 C 271.297 285.042,271.556 284.194,270.976 284.194 C 270.803 284.194,270.440 284.622,270.170 285.145 " stroke="none" fill="#04fbac" fill-rule="evenodd"></path></g></svg>